<?xml version="1.0" standalone="no"?>
<!DOCTYPE svg PUBLIC "-//W3C//DTD SVG 20010904//EN"
 "http://www.w3.org/TR/2001/REC-SVG-20010904/DTD/svg10.dtd">
<svg version="1.0" xmlns="http://www.w3.org/2000/svg"
 width="3529.000000pt" height="3017.000000pt" viewBox="0 0 3529.000000 3017.000000"
 preserveAspectRatio="xMidYMid meet">

<g transform="translate(0.000000,3017.000000) scale(0.100000,-0.100000)"
fill="#000000" stroke="none">
<path d="M28025 26944 c-47 -13 -200 -43 -255 -49 -28 -4 -239 -37 -375 -60
-49 -9 -151 -24 -225 -35 -74 -11 -142 -23 -150 -25 -8 -3 -76 -14 -150 -25
-171 -26 -369 -58 -495 -79 -79 -14 -239 -39 -295 -46 -24 -4 -48 -9 -52 -11
-3 -2 -40 -9 -80 -14 -40 -5 -84 -12 -98 -14 -14 -2 -59 -10 -100 -16 -41 -6
-106 -18 -145 -25 -75 -15 -117 -21 -180 -30 -22 -3 -51 -8 -65 -12 -31 -7
-39 -8 -175 -26 -60 -8 -139 -22 -175 -30 -103 -24 -235 -47 -274 -47 -19 0
-70 -7 -113 -15 -43 -9 -109 -22 -148 -30 -38 -8 -104 -19 -145 -25 -111 -16
-196 -30 -280 -45 -41 -8 -91 -17 -110 -20 -275 -42 -282 -43 -345 -55 -27 -6
-63 -12 -80 -14 -16 -2 -55 -9 -85 -16 -30 -6 -91 -17 -135 -25 -120 -20 -559
-101 -735 -135 -207 -40 -192 -37 -300 -60 -52 -11 -142 -30 -200 -40 -58 -11
-152 -30 -210 -41 -178 -35 -290 -56 -415 -78 -66 -12 -131 -26 -145 -33 -35
-17 -559 -18 -885 -2 -273 14 -530 20 -1110 29 -192 3 -380 10 -416 15 -37 5
-158 9 -269 9 -112 0 -314 2 -449 6 -766 18 -1079 26 -1191 30 -69 2 -375 9
-680 15 -305 5 -715 14 -910 20 -586 16 -1037 27 -1515 35 -165 3 -437 10
-605 15 -168 5 -435 12 -595 15 -506 9 -1118 25 -1170 30 -52 5 -345 12 -870
20 -481 8 -718 15 -738 21 -10 3 -24 1 -32 -6 -9 -7 -15 -8 -20 0 -10 16 -21
12 -22 -10 -2 -29 89 -120 121 -120 14 0 166 -9 338 -20 274 -17 434 -25 933
-45 161 -7 762 -23 1680 -45 446 -10 857 -22 915 -25 58 -3 287 -10 510 -15
601 -14 1147 -29 1300 -35 74 -3 191 -6 260 -7 69 -1 108 -3 88 -5 -37 -4 -38
-6 -38 -43 0 -21 -5 -40 -11 -42 -7 -2 -8 -15 -2 -38 8 -32 13 -36 54 -42 24
-3 127 -9 229 -13 102 -3 212 -8 245 -10 33 -2 137 -6 230 -9 175 -6 516 -22
735 -33 92 -5 113 -9 80 -13 -41 -5 -37 -7 40 -13 127 -11 1036 -38 1700 -52
151 -3 421 -9 600 -14 179 -4 352 -7 385 -5 33 1 125 3 205 5 l145 3 -120 6
c-117 6 -118 6 -35 8 430 13 563 13 571 0 7 -10 9 -9 9 5 0 9 5 17 10 17 6 0
10 -5 10 -11 0 -5 4 -8 9 -4 12 7 53 -61 81 -135 12 -30 25 -62 30 -70 4 -9
11 -40 15 -69 5 -40 12 -55 26 -58 10 -3 19 -8 19 -12 0 -3 32 -6 70 -6 58 0
69 2 65 15 -2 8 -9 36 -16 62 -6 26 -15 45 -20 42 -5 -3 -6 2 -3 11 6 14 -39
145 -82 240 -47 107 -51 161 -10 169 11 3 62 14 111 25 50 11 119 25 155 31
36 5 115 19 175 30 61 12 135 25 165 30 30 4 75 13 100 19 52 12 268 55 415
82 55 10 152 27 215 39 63 12 138 25 165 30 28 5 120 23 205 40 85 18 180 36
210 40 30 5 69 11 85 14 61 11 241 44 270 50 65 14 210 40 365 66 69 11 145
25 170 30 25 5 124 23 220 40 96 17 208 37 249 46 40 8 85 16 100 18 38 6 193
32 286 50 44 8 134 25 200 36 66 12 152 28 190 35 39 8 97 18 130 24 33 6 123
23 200 37 77 14 163 30 190 35 28 4 113 19 190 33 77 14 219 39 315 55 96 17
209 38 250 46 85 17 393 71 489 85 35 6 68 13 73 16 9 6 25 9 118 19 30 3 73
11 95 17 22 6 67 14 100 19 110 16 542 95 594 109 20 5 47 9 61 9 45 1 70 5
70 12 0 4 28 10 63 13 92 10 107 26 24 26 -56 0 -69 3 -73 18 -17 53 -26 57
-99 36z m-11998 -1250 c-3 -3 -12 -4 -19 -1 -8 3 -5 6 6 6 11 1 17 -2 13 -5z
m233 -8 c0 -2 -7 -6 -15 -10 -8 -3 -15 -1 -15 4 0 6 7 10 15 10 8 0 15 -2 15
-4z m-227 -13 c-7 -2 -19 -2 -25 0 -7 3 -2 5 12 5 14 0 19 -2 13 -5z m140 0
c-18 -2 -48 -2 -65 0 -18 2 -4 4 32 4 36 0 50 -2 33 -4z m-3 -23 c0 -5 -5 -10
-11 -10 -5 0 -7 5 -4 10 3 6 8 10 11 10 2 0 4 -4 4 -10z m288 3 c-10 -2 -28
-2 -40 0 -13 2 -5 4 17 4 22 1 32 -1 23 -4z m-431 -9 c-3 -3 -12 -4 -19 -1 -8
3 -5 6 6 6 11 1 17 -2 13 -5z m101 -1 c-10 -2 -26 -2 -35 0 -10 3 -2 5 17 5
19 0 27 -2 18 -5z m4775 -80 c-7 -2 -19 -2 -25 0 -7 3 -2 5 12 5 14 0 19 -2
13 -5z m14 -35 c-3 -8 -6 -5 -6 6 -1 11 2 17 5 13 3 -3 4 -12 1 -19z"/>
<path d="M15843 25523 c9 -2 23 -2 30 0 6 3 -1 5 -18 5 -16 0 -22 -2 -12 -5z"/>
<path d="M20618 25373 c34 -2 90 -2 125 0 34 2 6 3 -63 3 -69 0 -97 -1 -62 -3z"/>
<path d="M20918 25373 c7 -3 16 -2 19 1 4 3 -2 6 -13 5 -11 0 -14 -3 -6 -6z"/>
<path d="M9570 25148 c-366 -11 -671 -22 -679 -24 -8 -2 -11 -7 -9 -10 7 -6
193 -55 231 -60 16 -2 32 -6 37 -9 5 -3 62 -17 127 -31 65 -14 134 -29 153
-34 19 -4 58 -13 85 -19 57 -12 178 -38 380 -83 77 -16 181 -38 230 -47 50
-10 97 -20 105 -23 8 -4 49 -14 90 -23 41 -9 103 -23 137 -31 34 -7 71 -14 83
-14 16 0 20 -7 21 -37 l1 -38 10 35 c11 36 5 344 -8 428 l-7 42 -161 -1 c-88
-1 -460 -11 -826 -21z"/>
<path d="M8556 25031 c-13 -14 -39 -43 -56 -63 -18 -21 -38 -38 -45 -38 -7 0
-18 -6 -24 -14 -10 -12 -6 -15 21 -21 18 -4 71 -18 118 -32 47 -14 146 -43
220 -64 74 -22 176 -51 225 -64 50 -13 126 -33 170 -45 102 -28 156 -41 335
-84 80 -19 213 -51 295 -70 83 -20 233 -57 335 -82 224 -54 362 -83 373 -77 4
2 7 -2 7 -9 1 -35 19 25 29 95 17 121 15 162 -8 164 -18 2 -276 54 -356 73
-22 5 -114 25 -205 45 -91 19 -185 40 -209 45 -24 6 -98 22 -165 35 -66 14
-150 31 -186 40 -203 47 -445 99 -510 110 -81 14 -166 34 -273 64 l-68 19 -23
-27z"/>
<path d="M28425 24981 c-3 -12 -10 -19 -15 -16 -5 3 -12 0 -16 -6 -4 -8 -3 -9
4 -5 7 4 12 3 12 -2 0 -5 -9 -12 -20 -15 -10 -3 -19 -2 -18 2 2 22 -5 23 -17
1 -8 -14 -14 -19 -15 -12 0 6 -5 12 -11 12 -5 0 -7 -4 -4 -10 4 -6 -7 -10 -27
-10 -18 0 -46 -7 -62 -15 -16 -9 -38 -13 -50 -10 -17 5 -18 4 -6 -4 16 -11 8
-15 -24 -11 -10 1 -22 -3 -25 -9 -4 -5 -29 -13 -56 -17 -28 -3 -52 -9 -55 -13
-12 -15 -52 -31 -91 -36 -23 -3 -47 -9 -53 -15 -16 -12 -46 -7 -57 11 -7 11
-9 11 -9 -3 0 -17 -15 -23 -50 -20 -23 2 -80 -18 -80 -28 0 -5 -28 -10 -62
-12 -48 -2 -63 -7 -63 -18 0 -11 -19 -17 -80 -24 -43 -5 -85 -15 -92 -22 -7
-7 -22 -10 -34 -7 -12 3 -24 0 -29 -7 -10 -16 -83 -29 -165 -29 -37 -1 -69 -7
-82 -16 -12 -8 -29 -12 -37 -9 -9 3 -23 0 -32 -7 -9 -7 -32 -12 -51 -11 -19 2
-41 -2 -49 -8 -7 -7 -19 -8 -25 -4 -8 4 -9 3 -5 -4 4 -7 1 -12 -7 -12 -8 0
-28 -7 -43 -15 -16 -8 -47 -15 -69 -15 -22 0 -58 -7 -80 -15 -22 -8 -61 -14
-87 -15 -25 0 -48 -4 -50 -9 -1 -5 -39 -14 -83 -21 -44 -6 -105 -15 -135 -21
-30 -5 -78 -9 -106 -9 -38 1 -53 -3 -57 -14 -4 -9 -18 -16 -32 -16 -14 0 -25
-4 -25 -10 0 -6 -28 -10 -62 -10 -40 -1 -70 -6 -82 -15 -12 -9 -42 -15 -72
-15 -34 0 -54 -5 -57 -13 -5 -13 -35 -18 -114 -21 -18 -1 -33 -4 -33 -8 0 -5
-18 -8 -40 -8 -29 0 -43 -5 -52 -20 -7 -11 -16 -20 -21 -20 -4 0 -5 5 -2 10 3
6 -5 10 -19 10 -13 0 -26 -5 -28 -12 -3 -7 -41 -14 -100 -18 -54 -3 -103 -12
-112 -19 -8 -7 -20 -10 -26 -6 -5 3 -10 -1 -10 -9 0 -12 -11 -16 -50 -16 -27
0 -50 -4 -50 -10 0 -5 -9 -10 -21 -10 -11 0 -18 4 -15 8 9 15 -118 1 -130 -14
-6 -8 -20 -14 -30 -14 -10 0 -39 -9 -63 -20 -24 -11 -63 -20 -87 -20 -23 0
-46 -5 -49 -10 -4 -6 -16 -10 -28 -8 -32 3 -107 -13 -102 -22 3 -4 -35 -11
-83 -15 -48 -4 -92 -11 -97 -16 -6 -4 -20 -8 -30 -8 -50 0 -117 -15 -122 -27
-3 -9 -20 -14 -43 -14 -25 0 -40 -5 -44 -16 -3 -9 -11 -12 -18 -8 -20 13 -58
10 -58 -3 0 -9 -14 -13 -41 -13 -22 0 -49 -4 -59 -10 -10 -5 -43 -11 -74 -12
-31 -2 -56 -6 -56 -10 0 -5 -18 -8 -40 -8 -22 0 -40 -4 -40 -10 0 -5 -20 -10
-44 -10 -25 0 -48 -4 -51 -10 -3 -5 -24 -10 -45 -10 -21 0 -42 -5 -45 -11 -4
-6 -19 -7 -35 -4 -22 5 -33 1 -50 -17 -17 -19 -33 -23 -83 -25 -34 -1 -63 -6
-65 -12 -2 -7 -35 -11 -82 -11 -43 0 -81 -4 -84 -9 -3 -5 -15 -7 -27 -4 -13 4
-27 -2 -41 -17 -14 -14 -28 -20 -44 -17 -13 2 -24 1 -24 -3 0 -5 -19 -10 -42
-14 -78 -10 -123 -17 -138 -23 -8 -3 -26 -6 -40 -7 -15 -1 -25 -7 -25 -16 0
-11 -22 -18 -85 -28 -146 -22 -155 -23 -170 -29 -8 -3 -26 -6 -40 -7 -17 -1
-25 -6 -24 -18 1 -14 -13 -18 -82 -23 -47 -4 -87 -11 -90 -16 -3 -5 -20 -9
-39 -9 -19 0 -36 -4 -39 -9 -3 -5 -26 -7 -51 -5 -35 4 -45 1 -45 -11 0 -8 8
-16 18 -16 16 -1 -49 -13 -228 -39 -41 -7 -79 -17 -85 -24 -15 -18 -43 -28
-105 -37 -30 -4 -80 -13 -110 -19 -30 -6 -68 -13 -85 -15 -87 -12 -103 -17
-98 -31 4 -11 -7 -14 -49 -14 -41 0 -62 -6 -91 -25 -20 -14 -36 -29 -36 -33 3
-19 -2 -23 -16 -12 -8 7 -15 8 -15 3 0 -14 -50 -70 -51 -58 -1 6 -4 -3 -8 -19
-3 -17 -10 -28 -14 -25 -4 2 -15 -11 -24 -28 -8 -18 -19 -31 -23 -28 -4 3 -11
-7 -14 -20 -4 -14 -11 -23 -16 -20 -6 3 -10 0 -10 -7 0 -19 -45 -79 -53 -71
-4 3 -7 2 -7 -4 0 -6 -19 -33 -43 -59 -60 -68 -80 -101 -64 -107 60 -24 -3023
122 -5263 248 -2319 131 -3916 231 -4925 310 -395 31 -439 28 -85 -6 273 -26
259 -24 267 -32 3 -4 25 -7 47 -7 30 0 37 -3 26 -10 -11 -7 -6 -10 20 -10 20
0 40 -4 46 -10 5 -5 37 -10 71 -12 36 -1 59 -6 56 -12 -3 -5 -1 -6 6 -2 6 4
18 3 26 -4 7 -6 29 -13 47 -15 67 -9 143 -27 157 -39 8 -6 16 -10 18 -8 12 8
84 -1 96 -13 8 -8 16 -12 18 -11 2 2 27 0 54 -6 28 -5 68 -11 90 -13 22 -1 69
-10 105 -19 36 -8 82 -15 103 -16 26 0 37 -4 37 -15 0 -11 11 -15 38 -15 21 0
78 -9 128 -20 49 -10 98 -19 109 -19 27 1 107 -20 120 -30 17 -15 245 -34 245
-21 0 11 59 10 65 -1 4 -5 -8 -9 -24 -9 -17 0 -31 -4 -31 -10 0 -15 67 -12 73
3 3 6 6 2 6 -11 1 -13 5 -20 11 -17 6 4 8 11 5 16 -4 5 1 9 9 9 9 0 18 0 21 0
3 0 4 -3 3 -7 -2 -5 -6 -7 -10 -6 -5 2 -8 -2 -8 -7 0 -6 6 -10 14 -10 8 0 13
-10 12 -27 -1 -26 1 -27 47 -24 59 3 63 -16 5 -22 l-43 -4 43 -1 c23 -1 42 -6
42 -10 0 -4 36 -8 80 -9 44 -1 80 2 80 7 0 5 -8 10 -17 13 -10 2 5 1 32 -1 28
-3 57 -5 65 -4 8 0 31 -2 50 -5 33 -6 34 -6 10 -13 -14 -5 -51 -8 -82 -9 -32
-1 -58 -5 -58 -11 0 -14 158 -8 164 6 2 6 18 9 35 6 25 -3 30 -9 33 -36 3 -29
6 -31 46 -34 43 -3 51 4 30 27 -11 11 -7 12 17 7 29 -6 110 -15 148 -16 10 0
15 -5 12 -10 -6 -10 4 -10 55 -1 3 1 -8 8 -24 16 -15 8 -48 15 -72 15 -34 0
-44 4 -44 16 0 13 7 15 33 10 17 -3 48 -9 67 -12 19 -3 42 -10 50 -14 8 -4 50
-11 93 -15 42 -4 77 -11 77 -16 0 -5 37 -8 83 -7 70 1 76 2 37 8 -42 7 -43 7
-10 9 19 0 51 4 71 7 24 4 40 1 50 -8 8 -8 39 -18 68 -21 61 -7 203 2 196 13
-2 4 2 7 10 7 8 0 12 -3 10 -7 -12 -20 46 -27 150 -18 61 5 166 10 234 11 109
2 125 0 135 -15 12 -20 52 -23 76 -8 12 8 10 10 -10 11 -14 0 -19 3 -10 6 8 2
22 7 30 10 8 3 26 7 40 9 21 3 22 2 5 -5 -16 -6 -10 -9 27 -15 26 -4 50 -11
53 -17 4 -5 13 -5 25 1 25 13 73 13 87 -1 6 -6 21 -9 34 -6 22 4 22 4 -3 6
-16 0 -28 4 -28 9 0 13 313 7 318 -6 2 -8 31 -12 85 -11 71 1 76 2 42 10 -22
4 -59 8 -82 8 -25 1 -43 6 -43 12 0 8 19 10 68 5 37 -4 164 -9 282 -10 183 -2
204 -1 140 8 -108 14 -61 17 142 9 97 -5 174 -5 170 -1 -4 4 -25 9 -47 11 -63
7 291 -1 485 -11 96 -6 176 -9 178 -7 2 2 -30 7 -70 12 -60 8 -42 9 102 7 96
-2 192 -6 213 -10 21 -3 86 -7 145 -9 119 -4 248 -22 392 -53 52 -12 129 -26
170 -33 41 -6 107 -19 145 -29 39 -9 95 -22 125 -28 30 -6 111 -23 180 -38
124 -26 165 -29 288 -18 41 4 62 2 62 -5 0 -6 -4 -11 -9 -11 -16 0 -143 -131
-199 -205 -99 -131 -243 -467 -256 -595 -2 -19 -1 -27 1 -17 2 9 9 15 14 12 5
-3 6 1 3 9 -4 10 -1 16 9 16 9 0 18 -10 20 -22 5 -21 5 -21 5 2 -1 61 2 75 11
61 5 -8 7 -20 4 -28 -7 -19 7 -16 22 4 11 15 18 15 49 6 36 -11 36 -11 37 20
1 24 4 18 11 -21 11 -62 17 -63 20 -4 1 23 5 39 9 36 4 -2 20 50 35 115 19 81
35 129 51 148 13 16 20 20 17 11 -5 -16 2 -18 68 -18 41 0 99 4 129 9 55 10
194 21 328 26 41 2 111 8 155 14 45 5 146 13 226 16 80 3 146 10 148 15 2 6
40 10 85 9 60 0 77 -3 62 -10 -15 -7 -10 -8 20 -4 22 3 118 8 213 11 127 5
172 4 172 -4 0 -14 59 -16 80 -2 11 7 2 10 -32 10 -27 0 -48 5 -48 10 0 7 79
10 238 8 131 -1 242 1 248 4 15 10 199 20 406 22 183 3 218 7 188 26 -9 6 15
8 66 7 56 -1 86 2 97 12 10 7 17 10 17 6 0 -4 6 -2 14 4 7 6 42 14 77 17 59 5
109 17 258 60 29 9 103 22 165 30 128 16 216 34 232 45 17 14 152 39 205 39
27 0 64 6 82 13 18 7 55 14 82 16 28 1 77 9 110 17 33 7 78 14 100 15 l40 2
-35 7 c-19 4 -26 8 -15 9 11 1 54 6 95 12 41 5 93 12 115 14 22 3 67 9 100 15
33 5 101 14 150 20 50 6 94 16 100 21 5 5 21 9 36 9 15 0 30 4 33 9 3 5 29 11
58 14 29 3 141 17 248 32 107 15 226 30 265 32 38 3 79 12 91 20 15 9 39 12
75 9 40 -4 45 -3 19 3 -33 7 -32 8 25 14 33 3 94 11 135 17 41 6 109 13 150
15 41 3 93 9 115 14 37 9 87 14 357 41 59 6 120 15 135 20 15 4 78 11 138 15
61 4 124 8 142 9 18 2 38 8 46 15 10 8 37 9 84 5 48 -5 72 -3 77 5 4 6 34 11
69 11 62 1 62 1 80 39 9 20 17 56 17 79 0 30 -4 42 -17 45 -16 4 33 11 79 11
9 0 15 2 13 6 -2 4 4 6 13 6 9 0 35 2 57 4 l40 3 -45 7 c-39 6 -34 8 35 8 44
0 95 5 114 11 37 11 138 4 147 -10 2 -5 18 -6 34 -2 18 3 30 1 30 -5 0 -6 -10
-13 -22 -15 -18 -3 -16 -5 7 -6 25 -1 31 3 31 19 0 16 -7 20 -36 21 l-35 1 35
8 c22 6 40 5 48 -3 10 -8 20 -7 40 5 18 10 48 14 89 12 35 -1 61 2 58 6 -3 4
39 10 92 13 155 8 226 14 271 22 30 5 42 3 42 -5 0 -8 4 -9 13 -3 6 5 41 10
77 12 36 1 79 6 95 11 17 5 75 11 130 14 55 3 179 12 275 20 96 8 211 17 255
20 44 3 132 10 195 15 63 6 151 13 195 16 44 3 98 7 120 9 22 2 157 14 300 25
143 12 342 28 443 37 100 8 186 13 191 10 4 -3 23 -1 42 4 19 5 80 11 136 14
57 2 106 7 110 9 5 3 107 12 228 22 121 9 229 18 241 20 33 7 109 71 126 106
12 23 13 39 7 58 -23 61 -16 59 -361 111 -177 27 -411 65 -518 84 -599 107
-1522 255 -2357 377 -84 13 -153 25 -153 29 0 3 82 30 183 59 510 150 1192
372 1542 504 66 25 128 48 138 52 18 8 72 103 64 112 -3 2 -8 -5 -12 -16z
m-2488 -1607 c-3 -3 -12 -4 -19 -1 -8 3 -5 6 6 6 11 1 17 -2 13 -5z m-422
-214 c3 -6 -1 -7 -9 -4 -18 7 -21 14 -7 14 6 0 13 -4 16 -10z m130 0 c-11 -5
-29 -8 -40 -8 -16 0 -15 2 5 8 34 11 60 11 35 0z m-388 -16 c-3 -3 -12 -4 -19
-1 -8 3 -5 6 6 6 11 1 17 -2 13 -5z m166 -1 c-7 -2 -19 -2 -25 0 -7 3 -2 5 12
5 14 0 19 -2 13 -5z m-413 -17 c0 -3 -4 -8 -10 -11 -5 -3 -10 -1 -10 4 0 6 5
11 10 11 6 0 10 -2 10 -4z m344 -57 c9 -88 8 -99 -9 -99 -12 0 -15 16 -15 80
0 95 14 106 24 19z m-456 44 c-10 -2 -26 -2 -35 0 -10 3 -2 5 17 5 19 0 27 -2
18 -5z m160 -20 c-10 -2 -26 -2 -35 0 -10 3 -2 5 17 5 19 0 27 -2 18 -5z m51
-17 c-2 -2 -24 -6 -48 -9 -29 -4 -40 -2 -30 4 13 8 88 14 78 5z m-11286 -230
c16 -13 16 -14 -3 -19 -24 -6 -80 10 -80 24 0 14 63 10 83 -5z m605 -23 c-21
-2 -55 -2 -75 0 -21 2 -4 4 37 4 41 0 58 -2 38 -4z m959 -9 c-3 -3 -12 -4 -19
-1 -8 3 -5 6 6 6 11 1 17 -2 13 -5z m8533 -34 c0 -5 -12 -10 -26 -10 -14 0
-23 4 -19 10 3 6 15 10 26 10 10 0 19 -4 19 -10z m-5737 -945 c-3 -9 -8 -14
-10 -11 -3 3 -2 9 2 15 9 16 15 13 8 -4z"/>
<path d="M10390 23908 c-36 -10 -103 -30 -150 -44 -206 -60 -310 -96 -310
-106 0 -13 8 -11 180 40 243 72 329 100 344 113 20 17 -1 16 -64 -3z"/>
<path d="M10405 23850 c0 -16 1 -30 2 -30 1 0 9 14 18 30 14 28 14 30 -2 30
-13 0 -18 -8 -18 -30z"/>
<path d="M10456 23801 c-19 -7 -19 -8 1 -13 11 -3 53 -3 92 0 71 5 80 1 61
-28 -8 -13 -10 -13 -10 1 0 12 -9 16 -37 14 -56 -3 -62 -6 -28 -15 l30 -8 -27
-1 c-42 -2 -34 -21 10 -23 37 -1 37 -1 -8 -7 -42 -6 -43 -7 -17 -14 15 -4 32
-5 38 -2 5 4 51 2 102 -4 83 -10 228 -23 557 -50 63 -6 173 -13 245 -16 71 -4
132 -8 136 -11 4 -2 124 -11 266 -19 142 -8 321 -19 398 -25 77 -5 239 -16
360 -25 121 -8 280 -20 352 -26 73 -6 137 -8 141 -5 5 3 47 1 93 -4 46 -5 203
-16 349 -24 251 -15 330 -20 495 -31 39 -3 214 -14 390 -25 176 -11 379 -24
450 -30 72 -5 195 -12 275 -15 80 -3 165 -7 190 -10 133 -12 177 -15 300 -20
74 -3 205 -10 290 -15 256 -16 510 -30 595 -34 277 -13 381 -20 390 -27 6 -4
16 -4 23 0 7 4 41 4 75 0 62 -8 556 -37 732 -44 142 -5 335 -15 395 -20 30 -3
186 -12 345 -20 160 -9 308 -18 330 -20 45 -6 454 -25 645 -31 69 -2 179 -8
244 -14 66 -6 234 -15 375 -20 258 -10 298 -12 561 -29 139 -10 258 -8 346 4
52 7 81 -14 63 -47 -11 -20 -3 -40 9 -22 4 5 21 30 38 54 48 71 122 235 102
227 -94 -35 -132 -39 -287 -28 -86 6 -259 15 -386 21 -126 6 -354 17 -505 25
-151 8 -367 19 -480 25 -216 11 -1195 60 -2180 110 -322 16 -724 36 -895 45
-170 8 -528 26 -795 40 -267 14 -933 47 -1480 75 -2034 102 -2595 130 -2985
151 -220 11 -475 21 -567 22 -93 1 -168 5 -168 10 0 9 -9 8 -34 -2z"/>
<path d="M7971 23765 c-1 -11 3 -35 8 -52 6 -20 6 -35 0 -38 -5 -4 -9 8 -9 24
0 17 -4 31 -8 31 -19 0 8 -402 44 -645 43 -290 127 -562 259 -842 62 -129 64
-132 104 -143 39 -10 40 -11 22 -29 -20 -20 -112 -37 -220 -40 -36 -1 -72 -6
-81 -11 -10 -5 -20 -7 -23 -4 -2 3 -22 -2 -42 -10 -20 -9 -42 -13 -47 -10 -16
10 -210 16 -217 7 -3 -5 -17 -14 -31 -20 l-25 -12 29 0 c16 -1 26 -4 22 -8 -8
-8 -75 -5 -90 4 -5 4 6 12 25 19 32 12 32 13 8 13 -33 1 -58 -24 -41 -41 7 -7
17 -13 24 -14 7 -1 40 -10 73 -19 88 -24 96 -26 140 -29 21 -2 41 -9 43 -15 6
-19 69 -46 227 -98 151 -50 377 -122 470 -150 28 -8 59 -19 70 -23 11 -5 47
-16 80 -25 33 -9 83 -25 110 -35 56 -20 174 -55 220 -66 17 -4 35 -10 40 -14
6 -4 21 -10 35 -13 22 -4 192 -54 310 -91 110 -34 428 -130 510 -153 30 -9 66
-20 80 -25 13 -5 97 -32 185 -59 88 -28 203 -63 255 -80 52 -16 126 -38 163
-49 37 -10 74 -23 81 -29 7 -6 15 -8 19 -5 6 6 60 -9 112 -32 16 -7 33 -10 37
-8 5 3 34 -3 66 -14 31 -11 77 -25 102 -32 25 -8 49 -17 55 -22 5 -4 16 -8 25
-8 8 0 71 -18 139 -40 68 -22 128 -40 135 -40 6 0 23 -6 38 -14 15 -8 42 -18
60 -22 43 -10 39 -9 69 -22 15 -6 46 -16 70 -22 24 -6 62 -17 84 -25 22 -7 94
-30 160 -51 66 -21 122 -40 125 -44 3 -3 48 -16 100 -29 52 -13 100 -27 105
-31 6 -5 24 -10 40 -13 17 -2 44 -8 62 -12 29 -7 31 -9 17 -23 -10 -10 -18
-12 -22 -5 -4 6 -25 13 -47 15 -22 3 -80 18 -130 33 -49 14 -112 31 -140 37
-27 5 -54 13 -60 17 -5 4 -39 16 -75 25 -36 10 -101 29 -145 42 -49 16 -92 23
-110 20 -19 -4 -25 -3 -17 3 10 6 8 10 -9 14 -13 4 -26 1 -30 -5 -4 -6 -11 -4
-17 8 -8 14 -14 16 -22 8 -8 -9 -35 -4 -101 17 -49 16 -96 29 -105 29 -8 0
-12 4 -9 10 3 5 0 7 -7 5 -7 -3 -52 6 -98 21 -47 14 -121 34 -165 44 -44 10
-114 28 -155 40 -41 12 -100 28 -130 37 -30 8 -80 23 -110 33 -30 10 -136 40
-235 65 -213 55 -590 160 -665 185 -14 5 -56 16 -95 25 -38 9 -79 21 -90 25
-11 5 -39 12 -62 15 -24 4 -45 10 -48 15 -4 7 -37 15 -105 26 -8 1 -31 7 -50
14 -19 6 -75 22 -125 35 -49 13 -124 33 -165 45 -41 12 -100 28 -130 35 -48
11 -244 64 -460 125 -36 10 -105 30 -155 44 -84 24 -167 48 -275 81 -126 38
-257 76 -270 80 -93 24 -266 73 -400 114 -230 71 -211 70 -249 11 -18 -27 -42
-56 -54 -65 -11 -8 -19 -16 -16 -18 15 -10 80 -33 279 -97 387 -124 493 -157
560 -175 36 -9 106 -30 155 -45 50 -15 114 -34 143 -41 28 -7 52 -16 52 -21 0
-4 8 -8 18 -8 9 0 44 -9 77 -19 33 -11 134 -43 225 -71 91 -28 215 -67 275
-86 61 -19 117 -34 125 -34 8 0 32 -6 55 -14 38 -14 86 -28 255 -76 183 -53
500 -146 615 -182 55 -17 118 -37 140 -43 22 -7 66 -18 98 -25 31 -7 57 -17
57 -22 0 -4 9 -8 20 -8 10 0 34 -6 52 -14 40 -18 321 -106 337 -106 6 0 87
-25 179 -55 92 -31 199 -64 237 -75 73 -20 236 -71 444 -139 68 -23 130 -41
139 -41 9 0 43 -9 76 -19 34 -11 142 -45 241 -76 99 -31 205 -65 235 -75 62
-20 203 -64 360 -110 206 -61 452 -137 485 -150 35 -14 123 -40 135 -40 7 0
26 -7 43 -15 31 -14 65 -23 170 -48 26 -6 47 -15 47 -19 0 -4 9 -8 19 -8 11 0
59 -13 108 -29 48 -17 99 -31 113 -33 14 -2 30 -6 35 -9 11 -7 123 -43 260
-83 50 -15 108 -33 130 -40 22 -8 81 -26 130 -41 175 -52 230 -69 245 -76 8
-4 62 -22 120 -39 58 -17 115 -35 128 -41 13 -5 33 -9 46 -9 12 0 26 -3 30 -7
3 -4 12 -8 19 -9 18 -4 128 -43 162 -58 17 -8 50 -17 75 -21 25 -4 56 -13 70
-20 32 -15 148 -54 177 -58 11 -2 27 -8 35 -13 7 -6 33 -19 58 -28 25 -10 56
-25 70 -34 14 -9 34 -18 44 -19 11 -2 24 -7 30 -12 6 -4 32 -14 58 -21 26 -7
53 -19 59 -26 6 -8 18 -14 25 -14 8 0 22 -4 32 -9 43 -22 255 -101 272 -101
10 0 25 -6 32 -14 8 -7 30 -17 49 -21 19 -4 51 -16 71 -26 21 -11 45 -19 56
-19 10 0 22 -4 28 -9 5 -5 27 -14 49 -21 58 -17 168 -61 181 -71 6 -5 14 -6
17 -2 4 3 7 -1 7 -10 0 -9 10 -23 22 -31 19 -13 20 -18 9 -28 -9 -9 -12 -9 -7
-1 3 6 2 14 -3 17 -5 3 -11 0 -14 -8 -6 -15 19 -30 34 -20 10 6 6 -5 -55 -131
-101 -208 -211 -615 -200 -739 4 -50 14 -60 14 -15 0 21 3 29 8 21 5 -7 24
-17 43 -22 40 -12 96 -13 85 -3 -8 8 -13 9 -68 11 -21 1 -38 6 -38 11 0 12 56
19 73 9 10 -5 17 -2 22 10 6 14 10 10 20 -18 8 -19 14 -27 14 -18 1 9 5 18 9
20 5 2 12 23 15 48 l6 46 -94 -11 c-67 -8 -95 -8 -95 -1 1 17 21 95 33 126 3
8 10 29 16 45 l11 30 -5 -29 c-4 -20 -1 -32 12 -42 22 -16 33 -18 33 -3 0 5
-5 7 -12 3 -8 -5 -9 -2 -5 10 4 10 7 20 7 22 0 2 5 4 11 4 5 0 8 -3 6 -7 -3
-5 17 -8 44 -8 27 0 49 4 49 8 0 5 4 5 10 2 5 -3 12 4 14 17 24 111 50 220 61
253 12 33 14 36 15 15 1 -23 2 -23 10 -5 7 17 9 18 14 4 4 -9 15 -16 24 -17
60 -4 181 -2 218 4 28 4 44 2 44 -4 0 -6 -6 -12 -12 -15 -7 -2 40 -6 104 -10
75 -4 128 -2 149 5 24 8 56 7 137 -6 59 -9 124 -19 145 -22 21 -3 43 -1 50 4
8 6 53 5 132 -4 224 -25 227 -25 220 -14 -4 6 12 10 42 11 26 1 62 3 78 5 17
2 71 -3 120 -12 82 -14 232 -12 258 3 4 2 107 6 230 8 122 2 242 8 267 14 25
5 99 13 165 17 73 4 112 10 100 15 -19 7 -19 8 2 8 12 1 25 6 28 11 8 13 41
13 63 -1 12 -7 28 -8 52 -1 l35 10 -32 1 c-58 2 -35 21 25 20 59 0 87 3 135
16 17 4 33 3 42 -5 8 -6 20 -8 26 -4 9 5 7 9 -7 14 -10 4 27 10 86 14 127 9
176 19 172 34 -2 14 24 16 33 3 6 -10 156 -2 165 8 3 3 11 6 18 7 28 2 32 5
32 19 0 9 9 15 21 15 14 0 19 -5 16 -13 -4 -10 2 -13 20 -9 16 3 21 7 13 12
-19 12 163 33 280 33 27 -1 49 5 55 13 6 9 38 16 90 20 44 3 85 9 90 14 6 4
23 5 38 3 15 -2 44 1 65 7 20 6 84 15 142 21 225 21 293 33 301 54 6 17 8 17
8 3 1 -13 9 -18 30 -18 17 0 32 4 36 10 3 5 22 8 43 6 39 -4 276 26 340 43 20
6 69 13 107 17 53 5 64 9 45 15 l-25 7 25 3 c14 1 41 3 60 4 50 2 209 24 250
34 19 5 67 12 105 15 39 3 111 13 160 22 50 9 113 20 140 25 28 4 84 16 125
24 41 9 98 18 125 21 28 3 75 9 105 14 30 5 107 16 170 25 63 9 165 25 225 36
61 10 130 20 155 22 25 2 52 6 60 10 47 18 264 51 285 43 9 -3 14 -2 10 3 -3
5 25 12 62 16 38 3 97 11 133 16 120 19 204 28 304 33 55 3 102 8 105 13 3 4
33 9 66 10 121 5 354 40 459 69 27 8 52 12 55 9 4 -2 27 1 51 6 25 6 92 17
150 25 58 9 116 17 130 19 14 3 45 7 70 11 25 3 52 8 60 11 8 3 30 5 48 4 18
-2 40 3 48 10 10 8 18 9 22 3 8 -11 124 -6 117 6 -7 12 51 30 114 35 l56 4
-50 -13 c-27 -8 -60 -15 -72 -15 -13 -1 -23 -6 -23 -12 0 -6 8 -8 18 -5 46 14
111 26 145 26 20 0 37 5 37 11 0 7 13 10 34 7 19 -2 33 -1 30 3 -6 10 45 21
67 14 11 -4 25 -2 32 3 7 5 80 17 162 26 83 10 180 24 216 32 36 8 69 14 75
13 5 -1 23 -1 39 1 26 1 28 2 10 10 -14 6 -6 7 22 3 24 -3 48 -1 55 5 7 6 40
13 72 17 33 3 63 8 67 11 5 3 47 5 95 5 47 0 94 4 103 10 14 8 252 40 409 56
28 3 50 9 46 14 -3 5 7 9 21 9 16 0 24 -4 19 -11 -3 -6 8 -4 24 5 35 18 56 21
47 6 -3 -5 4 -10 16 -10 18 0 19 2 9 15 -11 13 -8 15 16 15 23 0 26 -2 14 -10
-15 -10 75 -5 130 7 24 5 24 6 5 14 -19 9 -19 9 1 5 12 -2 53 2 91 10 38 7
121 18 184 24 63 6 148 15 189 20 41 6 109 13 150 16 46 4 78 12 83 20 4 8 20
14 35 14 16 0 33 5 40 12 7 7 25 13 40 14 25 1 62 13 106 36 13 7 16 6 11 -3
-6 -9 4 -10 41 -4 27 4 51 10 54 13 3 4 14 8 25 10 35 5 46 12 40 22 -3 5 -2
10 4 10 5 0 14 -8 20 -17 9 -17 10 -17 17 0 5 14 9 15 14 6 6 -8 14 -1 26 22
10 19 18 37 19 41 1 22 40 29 225 43 272 21 264 19 317 68 74 68 89 117 56
176 -21 37 -22 37 -278 91 -104 23 -198 44 -208 48 -11 4 43 16 140 31 87 12
212 33 278 46 66 13 177 31 246 40 144 20 175 35 246 123 57 70 62 94 32 151
l-24 46 -210 57 c-115 32 -215 58 -221 58 -7 0 -9 -10 -6 -25 2 -14 3 -25 0
-25 -2 0 -465 -52 -1028 -115 -1081 -120 -1440 -160 -4935 -550 -1204 -134
-2656 -296 -3225 -360 -1862 -207 -1665 -188 -1724 -170 -28 8 -69 25 -90 37
-36 21 -42 31 -73 123 -32 95 -53 175 -56 220 -1 11 -5 22 -8 25 -10 8 -56
223 -74 341 -9 57 -23 181 -31 274 -9 94 -18 193 -21 220 -2 28 -5 136 -6 242
-1 105 -5 195 -10 199 -4 4 -7 14 -6 23 0 12 3 11 9 -4 6 -12 7 6 3 50 -3 39
-10 74 -17 78 -8 6 -8 10 1 14 10 3 9 11 -2 33 -8 15 -12 30 -9 33 3 3 -11 10
-30 17 -20 6 -34 15 -31 19 2 5 -3 15 -13 24 -12 11 -42 17 -104 19 -47 2 -86
5 -86 8 2 35 -3 40 -46 40 -25 0 -48 5 -51 10 -3 6 -15 10 -27 10 -11 0 -33 9
-48 20 -17 12 -39 18 -56 16 -16 -2 -23 -1 -16 1 34 12 4 23 -64 23 -61 0 -82
4 -105 21 -17 12 -38 19 -49 16 -10 -3 -28 2 -39 10 -12 8 -30 11 -41 8 -14
-5 -20 -2 -20 9 0 12 -10 16 -41 16 -27 0 -47 6 -58 18 -9 9 -27 18 -41 20
-14 2 -35 8 -48 14 -17 9 -25 9 -34 0 -13 -13 -88 -17 -88 -4 0 4 18 6 40 4
27 -3 40 0 40 8 0 9 -15 11 -55 7 -31 -3 -55 -2 -55 4 0 5 -11 9 -25 9 -14 0
-25 4 -25 9 0 11 -39 26 -58 22 -8 -1 -22 5 -32 14 -10 9 -20 13 -23 8 -3 -4
-33 -10 -66 -11 -56 -3 -61 -2 -61 17 0 18 -6 21 -44 21 -30 0 -46 5 -50 15
-3 8 -17 15 -32 15 -14 0 -42 7 -61 16 -25 13 -37 14 -46 5 -12 -12 -87 -15
-87 -3 0 4 18 6 40 4 27 -3 40 0 40 8 0 9 -15 11 -55 7 -31 -3 -55 -2 -55 4 0
5 -11 9 -25 9 -14 0 -25 4 -25 9 0 11 -39 26 -58 23 -6 -2 -28 5 -48 14 -26
13 -38 14 -47 5 -14 -14 -87 -15 -87 -1 0 6 -7 10 -15 10 -8 0 -15 5 -15 10 0
6 -17 11 -37 11 -21 1 -51 4 -68 8 l-30 7 32 7 c24 5 31 11 27 22 -7 18 -30
20 -40 4 -5 -8 -9 -8 -14 1 -5 7 -40 12 -99 13 -50 1 -91 5 -91 10 0 4 -11 7
-25 7 -14 0 -25 4 -25 9 0 11 -39 26 -58 23 -6 -2 -28 5 -48 14 -26 13 -38 14
-47 5 -14 -14 -87 -15 -87 -1 0 6 -7 10 -15 10 -8 0 -15 5 -15 10 0 6 -15 10
-34 10 -19 0 -38 5 -42 11 -3 6 -17 9 -30 6 -13 -2 -24 0 -24 4 0 5 -18 9 -40
9 -27 0 -40 4 -40 14 0 16 -121 31 -164 20 -16 -4 -26 -2 -26 5 0 6 -17 12
-37 12 -21 1 -51 4 -68 8 l-30 7 35 9 35 9 -32 3 c-18 3 -33 8 -33 14 0 5 -35
8 -77 8 -65 -2 -71 -3 -38 -9 l40 -7 -42 -2 c-24 0 -43 4 -43 9 0 6 -7 10 -15
10 -8 0 -15 5 -15 10 0 6 -11 10 -25 10 -14 0 -25 4 -25 9 0 16 -82 35 -142
33 -11 -1 -18 7 -18 19 0 17 -8 19 -80 19 -47 0 -80 -4 -80 -10 0 -5 -5 -10
-12 -10 -6 0 -8 3 -5 6 3 4 2 16 -4 26 -8 14 -14 17 -21 10 -6 -6 -17 -8 -24
-5 -8 3 -14 0 -14 -6 0 -18 -34 -13 -49 8 -11 15 -28 19 -99 20 -87 2 -132 11
-54 11 35 0 42 3 42 19 0 22 -25 29 -104 30 -30 1 -53 -4 -59 -11 -7 -10 -10
-10 -14 0 -2 6 -17 12 -33 12 -16 0 -30 5 -32 11 -2 5 -30 11 -63 13 -64 3
-95 12 -95 27 0 5 17 10 38 10 20 1 51 5 67 9 20 6 -7 8 -80 9 -207 0 -205 0
-205 16 0 8 5 15 10 15 6 0 10 5 10 10 0 6 -18 10 -40 10 -29 0 -40 4 -40 15
0 13 -16 16 -96 14 -53 -1 -99 3 -103 8 -3 6 -24 10 -45 11 -44 2 -64 12 -23
12 15 0 27 5 27 11 0 8 -24 9 -80 4 -56 -5 -80 -4 -80 4 0 6 19 12 43 12 l42
1 -40 9 c-69 14 -125 11 -125 -7 0 -8 -4 -13 -8 -10 -9 5 -24 -19 -36 -58 -6
-18 -7 -18 -25 -2 -18 17 -20 16 -29 0 -9 -16 -12 -16 -27 -4 -14 12 -18 12
-26 -1 -5 -8 -9 -17 -9 -21 0 -5 -5 -8 -11 -8 -8 0 -8 4 0 14 16 19 3 46 -23
48 -52 4 -164 10 -201 10 -22 1 -32 3 -22 5 9 3 17 9 17 14 0 5 -51 9 -116 9
-89 0 -119 3 -130 15 -12 12 -12 15 -2 15 7 1 0 8 -15 16 -16 8 -40 13 -55 11
-15 -2 -21 -2 -14 0 6 3 12 9 12 14 0 5 -35 9 -78 9 -66 0 -79 -3 -90 -20 -7
-12 -23 -20 -41 -20 -29 0 -57 21 -44 33 3 4 7 18 8 32 1 24 -2 25 -53 25 -47
0 -53 2 -42 15 11 13 -2 15 -104 15 -92 0 -116 3 -116 14 0 19 -22 26 -112 33
-64 5 -76 8 -67 19 10 12 -15 14 -145 14 -97 0 -156 -4 -156 -10 0 -5 -5 -10
-11 -10 -8 0 -8 4 0 14 22 26 2 46 -48 47 -48 1 -167 6 -188 8 -7 0 -13 8 -13
16 0 12 -14 15 -70 15 -40 0 -70 -4 -70 -10 0 -5 -5 -10 -11 -10 -6 0 -7 5 -2
13 4 6 8 22 8 35 1 22 -3 23 -45 21 -25 -2 -63 2 -85 9 -22 6 -73 14 -112 18
-40 3 -73 11 -73 15 0 5 -10 9 -22 9 -23 1 -23 1 2 16 24 14 21 14 -40 11 -36
-2 -72 -7 -82 -11 -11 -5 -18 -2 -23 13 -7 22 -38 36 -56 26 -7 -5 -2 -12 12
-19 12 -6 24 -17 27 -24 6 -20 -128 -5 -148 15 -13 14 -12 15 15 10 17 -3 37
-2 45 3 9 5 -12 11 -58 16 -40 3 -72 11 -72 15 0 5 -10 9 -22 9 -23 1 -23 1 2
15 23 13 17 14 -74 15 -86 0 -97 2 -86 15 11 13 3 15 -64 15 -44 0 -76 4 -76
10 0 6 -23 10 -51 10 -27 0 -48 4 -45 9 8 13 -64 17 -236 16 -82 -1 -148 2
-148 6 0 4 -8 10 -17 12 -10 3 1 3 24 0 30 -4 46 -1 57 10 14 13 14 16 0 21
-9 3 -31 6 -50 6 -20 0 -33 4 -30 9 4 5 -8 13 -26 16 -21 5 -33 4 -36 -4 -4
-12 -71 -15 -88 -3 -6 4 -13 15 -17 25 -5 14 -19 17 -72 17 -37 0 -65 4 -65
10 0 6 -17 10 -38 10 -21 0 -42 3 -46 7 -4 4 -37 8 -74 9 -60 1 -146 22 -99
23 9 1 17 6 17 11 0 6 -33 10 -80 10 -47 0 -80 4 -80 10 0 6 -10 10 -22 10
-23 1 -23 1 2 15 23 14 18 15 -75 16 -153 1 -182 2 -162 6 43 11 10 22 -70 25
-83 3 -87 4 -94 28 -6 20 -7 21 -8 5z m252 -132 c-13 -2 -33 -2 -45 0 -13 2
-3 4 22 4 25 0 35 -2 23 -4z m94 1 c-3 -3 -12 -4 -19 -1 -8 3 -5 6 6 6 11 1
17 -2 13 -5z m66 -21 c-13 -2 -33 -2 -45 0 -13 2 -3 4 22 4 25 0 35 -2 23 -4z
m240 -60 c-13 -2 -33 -2 -45 0 -13 2 -3 4 22 4 25 0 35 -2 23 -4z m173 -14 c3
-5 -13 -9 -34 -9 -23 0 -42 5 -45 13 -3 9 6 11 34 9 22 -2 42 -8 45 -13z m147
-36 c-13 -2 -33 -2 -45 0 -13 2 -3 4 22 4 25 0 35 -2 23 -4z m480 -110 c-13
-2 -33 -2 -45 0 -13 2 -3 4 22 4 25 0 35 -2 23 -4z m172 -14 c5 -5 -9 -9 -33
-9 -23 0 -42 4 -42 9 0 5 -8 12 -17 14 -10 3 5 2 32 0 28 -3 54 -10 60 -14z
m308 -86 c-13 -2 -33 -2 -45 0 -13 2 -3 4 22 4 25 0 35 -2 23 -4z m577 -84 c0
-5 -18 -9 -40 -9 -26 0 -40 5 -40 13 0 9 12 11 40 9 22 -2 40 -8 40 -13z
m-177 4 c-13 -2 -33 -2 -45 0 -13 2 -3 4 22 4 25 0 35 -2 23 -4z m400 -80
c-13 -2 -33 -2 -45 0 -13 2 -3 4 22 4 25 0 35 -2 23 -4z m400 -80 c-13 -2 -33
-2 -45 0 -13 2 -3 4 22 4 25 0 35 -2 23 -4z m320 -60 c-13 -2 -33 -2 -45 0
-13 2 -3 4 22 4 25 0 35 -2 23 -4z m160 -20 c-13 -2 -33 -2 -45 0 -13 2 -3 4
22 4 25 0 35 -2 23 -4z m477 -104 c0 -5 -11 -9 -25 -9 -26 0 -34 15 -12 23 16
5 37 -3 37 -14z m180 -40 c0 -7 17 -10 44 -8 24 2 42 0 39 -5 -6 -9 -146 2
-177 14 -15 6 -4 9 37 9 35 1 57 -3 57 -10z m220 -40 c0 -5 -11 -9 -25 -9 -26
0 -34 15 -12 23 16 5 37 -3 37 -14z m83 -36 c-13 -2 -33 -2 -45 0 -13 2 -3 4
22 4 25 0 35 -2 23 -4z m145 -20 c-10 -2 -26 -2 -35 0 -10 3 -2 5 17 5 19 0
27 -2 18 -5z m495 0 c-13 -2 -33 -2 -45 0 -13 2 -3 4 22 4 25 0 35 -2 23 -4z
m320 -80 c-13 -2 -33 -2 -45 0 -13 2 -3 4 22 4 25 0 35 -2 23 -4z m720 -160
c-13 -2 -33 -2 -45 0 -13 2 -3 4 22 4 25 0 35 -2 23 -4z m737 -159 c0 -2 -18
-4 -40 -4 -22 0 -40 3 -40 8 0 4 18 6 40 4 22 -2 40 -6 40 -8z m720 -160 c0
-2 -18 -4 -40 -4 -22 0 -40 3 -40 8 0 4 18 6 40 4 22 -2 40 -6 40 -8z m-7748
-224 c1 -9 -1 -17 -7 -18 -5 -1 -11 10 -13 25 -4 29 13 23 20 -7z m9512 -239
c4 -5 -3 -7 -14 -4 -23 6 -26 13 -6 13 8 0 17 -4 20 -9z m-4974 -1271 c-14 -4
-29 -4 -35 -1 -5 3 1 8 15 11 14 4 29 4 35 1 5 -3 -1 -8 -15 -11z m316 -75
c16 -8 22 -15 13 -15 -8 0 -24 7 -35 15 -25 19 -14 19 22 0z m84 -25 c0 -5 -7
-10 -16 -10 -8 0 -12 5 -9 10 3 6 10 10 16 10 5 0 9 -4 9 -10z m260 -80 c0 -5
-4 -10 -10 -10 -5 0 -10 5 -10 10 0 6 5 10 10 10 6 0 10 -4 10 -10z m12295
-940 c-3 -5 -11 -10 -16 -10 -6 0 -7 5 -4 10 3 6 11 10 16 10 6 0 7 -4 4 -10z
m-6879 -126 c19 -15 19 -15 -1 -6 -11 5 -27 12 -35 15 -13 5 -13 6 1 6 8 1 24
-6 35 -15z m5754 -34 c0 -5 -4 -10 -10 -10 -5 0 -10 5 -10 10 0 6 5 10 10 10
6 0 10 -4 10 -10z m-2160 -320 c0 -5 -4 -10 -9 -10 -6 0 -13 5 -16 10 -3 6 1
10 9 10 9 0 16 -4 16 -10z m-652 -107 c-10 -2 -28 -2 -40 0 -13 2 -5 4 17 4
22 1 32 -1 23 -4z m-73 -13 c3 -6 -4 -10 -17 -10 -13 0 -41 -3 -63 -6 -28 -5
-37 -3 -30 4 6 6 28 12 50 15 22 2 43 4 47 5 4 1 10 -2 13 -8z"/>
<path d="M10440 23740 c0 -5 7 -10 15 -10 8 0 15 5 15 10 0 6 -7 10 -15 10 -8
0 -15 -4 -15 -10z"/>
<path d="M21331 23624 c0 -11 3 -14 6 -6 3 7 2 16 -1 19 -3 4 -6 -2 -5 -13z"/>
<path d="M9965 23510 c20 -22 74 -55 80 -48 2 2 -20 18 -48 37 -39 25 -47 28
-32 11z"/>
<path d="M10178 23443 c6 -2 18 -2 25 0 6 3 1 5 -13 5 -14 0 -19 -2 -12 -5z"/>
<path d="M10278 23433 c12 -2 32 -2 45 0 12 2 2 4 -23 4 -25 0 -35 -2 -22 -4z"/>
<path d="M10373 23423 c15 -2 37 -2 50 0 12 2 0 4 -28 4 -27 0 -38 -2 -22 -4z"/>
<path d="M10170 23396 c0 -2 11 -6 25 -8 13 -3 22 -1 19 3 -5 9 -44 13 -44 5z"/>
<path d="M27098 23253 c7 -3 16 -2 19 1 4 3 -2 6 -13 5 -11 0 -14 -3 -6 -6z"/>
<path d="M25900 23180 c-20 -6 -21 -8 -5 -8 11 0 29 3 40 8 25 11 -1 11 -35 0z"/>
<path d="M25968 23173 c6 -2 18 -2 25 0 6 3 1 5 -13 5 -14 0 -19 -2 -12 -5z"/>
<path d="M25725 23140 c-3 -5 1 -10 9 -10 9 0 16 5 16 10 0 6 -4 10 -9 10 -6
0 -13 -4 -16 -10z"/>
<path d="M25798 23143 c7 -3 16 -2 19 1 4 3 -2 6 -13 5 -11 0 -14 -3 -6 -6z"/>
<path d="M25880 23146 c0 -2 7 -6 15 -10 8 -3 15 -1 15 4 0 6 -7 10 -15 10 -8
0 -15 -2 -15 -4z"/>
<path d="M26076 23040 c6 -6 26 -6 54 -1 l45 9 -54 1 c-36 1 -52 -2 -45 -9z"/>
<path d="M25885 23030 c4 -6 11 -8 16 -5 14 9 11 15 -7 15 -8 0 -12 -5 -9 -10z"/>
<path d="M25798 23013 c7 -3 16 -2 19 1 4 3 -2 6 -13 5 -11 0 -14 -3 -6 -6z"/>
<path d="M25608 22993 c6 -2 18 -2 25 0 6 3 1 5 -13 5 -14 0 -19 -2 -12 -5z"/>
<path d="M25703 22993 c9 -2 23 -2 30 0 6 3 -1 5 -18 5 -16 0 -22 -2 -12 -5z"/>
<path d="M13130 22820 c-11 -7 -7 -10 18 -10 17 0 32 5 32 10 0 13 -30 13 -50
0z"/>
<path d="M13208 22803 c6 -2 18 -2 25 0 6 3 1 5 -13 5 -14 0 -19 -2 -12 -5z"/>
<path d="M24163 22803 c9 -2 25 -2 35 0 9 3 1 5 -18 5 -19 0 -27 -2 -17 -5z"/>
<path d="M14560 22790 c0 -6 7 -10 15 -10 8 0 15 2 15 4 0 2 -7 6 -15 10 -8 3
-15 1 -15 -4z"/>
<path d="M13373 22783 c9 -2 23 -2 30 0 6 3 -1 5 -18 5 -16 0 -22 -2 -12 -5z"/>
<path d="M15218 22763 c12 -2 30 -2 40 0 9 3 -1 5 -23 4 -22 0 -30 -2 -17 -4z"/>
<path d="M13520 22750 c0 -5 18 -10 41 -10 24 0 38 4 34 10 -3 6 -22 10 -41
10 -19 0 -34 -4 -34 -10z"/>
<path d="M14568 22743 c7 -3 16 -2 19 1 4 3 -2 6 -13 5 -11 0 -14 -3 -6 -6z"/>
<path d="M15308 22263 c12 -2 30 -2 40 0 9 3 -1 5 -23 4 -22 0 -30 -2 -17 -4z"/>
<path d="M19218 22163 c7 -3 16 -2 19 1 4 3 -2 6 -13 5 -11 0 -14 -3 -6 -6z"/>
<path d="M15943 22103 c9 -2 23 -2 30 0 6 3 -1 5 -18 5 -16 0 -22 -2 -12 -5z"/>
<path d="M7556 21993 c-3 -8 6 -10 32 -6 67 11 79 20 25 19 -30 -1 -55 -6 -57
-13z"/>
<path d="M7598 21973 c7 -3 16 -2 19 1 4 3 -2 6 -13 5 -11 0 -14 -3 -6 -6z"/>
<path d="M16583 21943 c9 -2 23 -2 30 0 6 3 -1 5 -18 5 -16 0 -22 -2 -12 -5z"/>
<path d="M18230 21780 c0 -6 7 -10 15 -10 8 0 15 2 15 4 0 2 -7 6 -15 10 -8 3
-15 1 -15 -4z"/>
<path d="M18250 21699 c-95 -8 -117 -15 -125 -39 -9 -28 6 -50 16 -24 6 15 8
16 8 3 1 -17 61 -34 61 -18 0 4 23 7 52 6 l52 -2 8 39 c5 21 7 40 6 40 -2 1
-37 -1 -78 -5z m-15 -39 c-3 -5 -16 -10 -28 -10 -18 0 -19 2 -7 10 20 13 43
13 35 0z"/>
<path d="M18110 21607 c0 -20 17 -31 26 -16 5 8 8 8 14 0 4 -8 14 -9 31 -2
l24 10 -27 0 c-14 1 -29 7 -31 14 -4 9 -6 8 -6 -2 -1 -11 -4 -11 -16 -1 -12
10 -15 10 -15 -3z"/>
<path d="M18283 20033 c9 -2 23 -2 30 0 6 3 -1 5 -18 5 -16 0 -22 -2 -12 -5z"/>
<path d="M18206 20023 c-10 -10 -7 -71 4 -78 7 -4 9 9 5 37 -3 33 -3 37 4 18
5 -14 9 -19 10 -12 1 7 5 10 11 7 5 -3 7 0 4 9 -6 16 -29 28 -38 19z"/>
<path d="M18308 19995 c-3 -14 -1 -25 3 -25 5 0 9 11 9 25 0 14 -2 25 -4 25
-2 0 -6 -11 -8 -25z"/>
<path d="M18290 19956 c0 -2 9 -6 20 -9 11 -3 18 -1 14 4 -5 9 -34 13 -34 5z"/>
<path d="M6623 19718 c1 -23 4 -33 9 -25 4 6 6 -7 4 -30 -2 -23 1 -64 5 -90 8
-44 36 -210 43 -258 30 -185 184 -759 229 -855 8 -15 30 -31 62 -43 90 -35
768 -278 880 -317 496 -171 795 -279 795 -289 0 -7 -456 -132 -2042 -557 -153
-41 -405 -108 -560 -150 -894 -240 -1254 -336 -1608 -430 -519 -138 -498 -132
-520 -154 -11 -11 -20 -31 -20 -44 0 -78 88 -252 149 -295 25 -18 89 -26 507
-66 263 -24 526 -49 584 -55 58 -6 317 -31 575 -56 259 -24 556 -54 660 -64
105 -11 357 -35 560 -55 204 -19 393 -38 420 -40 164 -17 267 -27 405 -40 85
-8 317 -31 515 -50 198 -19 455 -44 570 -55 491 -48 729 -71 865 -85 80 -8
219 -21 310 -30 151 -14 742 -72 970 -95 52 -5 149 -14 215 -20 66 -6 154 -15
195 -20 41 -5 111 -11 155 -15 86 -6 121 -10 200 -21 28 -3 70 -7 95 -9 51 -3
254 -22 315 -29 22 -3 76 -8 120 -11 69 -5 279 -28 505 -54 36 -5 80 -6 98 -3
17 2 32 0 32 -5 0 -5 8 -9 18 -10 35 -2 78 -11 105 -22 16 -6 37 -11 48 -11
10 0 19 -4 19 -10 0 -5 20 -10 44 -10 31 0 46 -5 50 -16 5 -13 15 -15 46 -11
22 3 43 1 46 -4 3 -5 0 -9 -6 -9 -24 0 21 -31 47 -33 16 -1 33 -7 38 -14 6 -6
21 -13 35 -15 14 -2 33 -9 42 -17 9 -8 25 -16 35 -17 38 -6 153 -51 146 -57
-3 -4 4 -7 16 -7 13 0 37 -6 54 -14 74 -33 240 -72 315 -75 24 -1 65 -6 90
-12 26 -5 58 -11 72 -13 72 -10 109 -19 105 -26 -3 -4 12 -11 33 -14 20 -4 45
-9 55 -12 9 -3 17 -1 17 5 0 5 -20 13 -45 17 -25 3 -43 10 -40 14 5 8 95 -10
95 -20 0 -3 12 -5 28 -5 15 1 32 -2 38 -7 6 -4 59 -17 119 -29 60 -11 118 -25
128 -31 15 -8 18 -7 12 2 -16 26 178 -8 196 -34 4 -5 14 -6 24 -3 9 4 14 3 10
-3 -3 -6 4 -10 16 -10 12 0 56 -6 98 -14 42 -8 121 -19 176 -26 115 -13 221
-36 250 -55 12 -7 45 -15 75 -19 169 -18 244 -29 320 -48 47 -12 105 -21 130
-20 36 0 40 -1 20 -7 -40 -13 1 -23 160 -41 107 -11 292 -44 286 -50 -2 -3 10
-6 27 -7 17 -1 33 -6 36 -11 9 -14 138 -40 233 -47 121 -8 234 -29 383 -70
123 -34 161 -38 420 -41 127 -1 235 -3 242 -3 7 -1 10 -8 7 -16 -4 -8 -1 -15
5 -15 6 0 10 6 9 13 -2 8 8 11 32 9 19 -2 69 -5 110 -8 41 -3 80 -9 85 -14 16
-12 270 -12 370 1 86 10 317 2 470 -17 95 -12 268 -9 273 4 3 9 48 12 173 12
154 0 169 2 170 18 1 11 4 8 9 -8 l7 -25 10 24 c9 22 11 19 37 -40 30 -67 118
-280 130 -314 5 -15 9 -16 15 -6 5 8 11 9 15 3 3 -5 20 -9 36 -8 27 2 31 -2
39 -33 17 -68 23 -131 12 -131 -15 0 -14 -19 3 -35 22 -23 31 -179 30 -545 0
-365 -11 -500 -64 -790 -43 -234 -119 -543 -159 -643 -13 -33 -101 -77 -154
-77 -17 0 -264 25 -547 55 -283 30 -1046 111 -1695 180 -649 69 -1493 159
-1875 200 -382 41 -762 82 -845 90 -267 28 -605 64 -800 85 -104 12 -212 23
-240 25 -27 3 -108 11 -180 19 -71 8 -175 20 -230 26 -55 6 -113 12 -130 14
-16 2 -64 7 -105 10 -41 3 -111 11 -155 16 -44 5 -127 14 -185 20 -234 24
-1113 117 -1645 175 -126 14 -545 59 -930 100 -746 80 -2504 272 -2795 305
-96 11 -357 40 -580 65 -507 57 -1194 136 -1537 177 -300 36 -281 25 -237 129
14 34 24 64 22 68 -3 8 -471 -163 -569 -206 -108 -49 -136 -165 -74 -301 31
-68 73 -121 123 -155 34 -24 69 -32 298 -68 261 -40 290 -46 283 -54 -7 -6
-392 -118 -773 -224 -257 -72 -365 -106 -380 -121 -32 -32 -26 -101 17 -191
41 -88 108 -177 140 -184 12 -3 252 -25 532 -50 682 -61 1427 -128 1885 -170
206 -19 625 -57 930 -84 894 -81 3091 -280 3145 -285 28 -3 151 -15 275 -26
124 -11 322 -29 440 -40 218 -21 527 -49 835 -76 94 -8 341 -31 550 -50 209
-19 425 -39 480 -44 470 -39 633 -56 628 -63 -2 -4 6 -5 19 -2 12 3 196 -10
408 -30 212 -19 402 -35 423 -35 27 0 36 -4 31 -12 -5 -8 -2 -9 11 -4 28 10
206 -5 198 -17 -4 -6 7 -7 31 -3 21 4 110 0 199 -9 89 -9 227 -22 307 -29 91
-9 137 -16 123 -21 -13 -4 -23 -11 -23 -16 0 -13 13 -11 48 7 26 13 46 14 124
5 51 -5 120 -12 153 -14 176 -10 581 -52 586 -60 4 -6 18 -7 33 -3 14 3 121
-3 238 -14 117 -11 292 -27 388 -36 96 -8 189 -19 206 -25 17 -5 51 -7 75 -4
32 4 39 3 24 -4 -14 -7 -1 -8 42 -4 46 4 73 1 104 -11 35 -14 59 -16 127 -10
57 4 83 3 78 -4 -3 -5 1 -13 10 -16 8 -3 12 -2 9 4 -8 12 -3 12 29 1 17 -7 26
-7 29 2 2 8 13 6 37 -5 23 -11 38 -14 46 -7 8 7 49 6 121 -1 153 -15 175 -19
167 -32 -5 -8 -1 -9 12 -4 29 11 175 8 190 -5 7 -6 61 -12 121 -14 59 -2 123
-8 141 -14 21 -6 30 -6 26 0 -4 7 8 8 33 3 21 -5 48 -8 61 -7 12 0 22 -3 22
-7 0 -4 37 -7 83 -5 54 1 73 -1 57 -6 -22 -8 -22 -8 8 -5 17 1 32 -1 32 -6 0
-4 7 -8 15 -8 8 0 15 5 15 10 0 6 17 9 38 9 l37 -2 -35 -6 -35 -7 45 -6 c25
-3 49 -1 55 3 12 12 68 12 61 0 -3 -4 7 -6 22 -4 21 4 24 2 12 -6 -12 -9 -10
-11 10 -11 14 -1 59 -3 100 -5 41 -2 149 -7 240 -10 91 -3 174 -8 185 -11 11
-3 30 -22 41 -42 20 -33 140 -187 186 -236 10 -11 27 -38 37 -60 48 -104 69
-154 80 -188 11 -33 15 -36 56 -40 25 -2 45 1 45 6 0 4 9 6 19 3 17 -4 19 -2
10 20 -5 14 -8 28 -5 30 9 9 46 -132 65 -248 40 -235 55 -440 55 -764 0 -395
-22 -635 -90 -980 -27 -138 -34 -170 -84 -360 -68 -262 -62 -248 -128 -278
-38 -18 -75 -27 -107 -27 -39 0 -2303 224 -4335 429 -107 11 -229 23 -270 26
-41 3 -86 8 -100 10 -14 3 -56 7 -95 10 -38 3 -203 19 -365 36 -162 17 -320
32 -350 35 -30 3 -120 12 -200 20 -80 8 -170 17 -200 20 -30 3 -212 21 -405
40 -192 19 -462 46 -600 59 -137 14 -315 32 -395 40 -80 8 -202 20 -272 27
-70 6 -125 14 -123 18 2 3 -8 5 -23 3 -15 -2 -139 7 -277 21 -752 76 -1373
139 -1545 156 -107 10 -330 33 -495 50 -674 69 -1650 170 -2385 246 -693 71
-1445 152 -2225 239 -489 55 -475 53 -475 73 0 9 12 47 27 84 14 38 24 70 22
73 -5 4 -153 -51 -419 -157 -230 -91 -265 -123 -265 -242 0 -56 6 -83 27 -129
53 -113 131 -188 219 -211 l54 -13 -35 -8 c-38 -8 -98 -35 -147 -65 -18 -11
-133 -51 -255 -91 -433 -138 -504 -161 -627 -199 -141 -45 -199 -71 -230 -103
-11 -12 -48 -51 -82 -87 -227 -239 -374 -647 -429 -1189 -13 -131 -13 -510 0
-661 46 -537 208 -1106 415 -1460 41 -71 43 -78 35 -121 -19 -99 26 -177 157
-276 21 -15 43 -33 50 -39 6 -6 31 -16 55 -22 105 -26 179 -42 198 -42 12 0
19 -4 15 -9 -3 -6 15 -9 42 -9 27 1 89 -6 138 -15 91 -17 132 -23 350 -52 66
-9 147 -20 180 -25 33 -5 105 -15 160 -21 119 -13 137 -15 285 -35 175 -23
344 -43 455 -54 55 -6 205 -23 335 -39 129 -16 269 -32 310 -36 41 -3 127 -12
190 -20 168 -21 369 -43 500 -55 63 -6 149 -15 190 -20 41 -5 109 -12 150 -15
41 -4 100 -10 130 -15 30 -5 107 -14 170 -20 63 -6 147 -14 185 -20 39 -5 149
-16 245 -25 96 -9 184 -18 195 -21 11 -3 47 -7 80 -10 33 -3 149 -14 257 -24
109 -11 217 -20 240 -20 32 0 39 -3 28 -10 -11 -7 -6 -8 17 -4 17 3 82 -1 145
-10 62 -8 172 -20 243 -26 169 -13 410 -37 555 -55 63 -8 153 -17 200 -20 99
-7 339 -31 925 -90 77 -7 176 -17 220 -20 44 -3 132 -12 195 -20 63 -8 156
-17 205 -20 50 -4 131 -10 180 -15 50 -5 167 -16 260 -24 94 -9 204 -20 245
-26 99 -13 139 -17 235 -25 44 -3 96 -8 115 -10 19 -2 89 -9 155 -14 66 -6
143 -14 170 -17 28 -2 79 -7 115 -10 36 -2 83 -7 105 -9 22 -3 72 -8 110 -10
39 -3 88 -7 110 -10 22 -3 166 -17 320 -30 316 -29 426 -39 640 -60 83 -8 206
-20 275 -25 355 -28 444 -39 453 -55 8 -14 10 -15 20 -2 11 13 29 13 152 0 77
-8 141 -19 143 -24 5 -12 29 -12 34 1 2 7 26 7 73 1 39 -6 122 -13 185 -16 63
-4 122 -9 130 -12 8 -2 42 -6 75 -9 33 -2 61 -8 63 -13 2 -5 12 -6 24 -3 31 8
321 -20 306 -29 -10 -7 -9 -9 5 -9 9 0 17 5 17 11 0 8 12 9 38 5 20 -4 75 -9
122 -11 47 -3 117 -10 155 -15 39 -6 129 -14 200 -19 272 -20 411 -33 426 -41
8 -4 27 -6 42 -3 22 4 182 -9 292 -24 30 -4 62 -6 469 -38 115 -9 213 -18 217
-21 4 -2 47 -7 96 -10 48 -3 108 -7 133 -10 25 -2 52 -4 60 -5 17 0 303 -26
455 -40 55 -5 125 -9 157 -9 31 1 59 -4 63 -10 4 -6 14 -8 24 -5 10 3 60 1
112 -5 84 -9 151 -15 424 -35 44 -4 152 -13 240 -21 88 -8 171 -15 185 -15 69
-3 250 -23 250 -28 0 -3 37 -5 82 -5 46 1 115 -2 153 -6 39 -5 151 -13 250
-19 99 -6 223 -16 275 -22 52 -5 120 -12 150 -13 30 -2 159 -11 285 -20 127
-9 262 -19 300 -21 39 -3 162 -12 275 -21 313 -23 509 -27 545 -10 17 8 66 28
110 45 44 16 101 41 126 54 25 14 56 28 70 32 30 9 350 162 656 312 128 63
177 83 195 78 15 -4 19 -3 10 3 -10 7 -5 14 21 29 19 12 45 24 58 28 13 4 30
12 36 17 7 6 20 8 28 4 9 -3 13 -2 10 3 -7 12 4 19 38 25 15 3 34 11 42 20 8
8 25 18 38 22 12 3 29 13 38 21 9 8 28 15 42 17 14 1 32 10 41 19 9 8 26 19
38 23 13 4 35 16 50 27 14 11 33 17 41 14 8 -3 23 3 33 14 9 10 22 19 28 19 6
0 28 11 48 25 20 14 46 25 57 25 12 0 21 4 21 9 0 5 12 14 28 20 15 6 43 20
62 31 19 11 43 20 52 20 10 0 18 4 18 9 0 5 12 14 28 20 15 6 43 20 62 31 19
11 43 20 52 20 10 0 18 3 18 8 0 12 128 74 139 67 5 -3 13 0 18 8 14 21 64 49
79 43 9 -3 12 -1 9 4 -4 6 7 15 24 21 17 6 31 15 31 20 0 5 6 9 13 9 6 0 25 7
41 15 16 9 36 13 43 10 8 -2 11 0 8 5 -3 6 6 15 22 21 15 5 30 13 33 17 13 17
84 42 104 37 15 -5 17 -4 7 3 -16 11 -22 8 204 120 83 41 152 78 153 83 2 5
12 9 22 9 10 0 22 5 25 10 3 6 15 10 25 10 10 0 20 3 22 8 3 8 29 21 338 179
113 58 270 139 350 181 320 166 357 185 395 204 22 10 47 23 55 28 8 5 85 45
170 88 85 44 196 101 245 127 50 26 133 70 185 97 52 28 106 56 120 63 94 50
152 75 161 70 5 -4 8 -1 7 5 -2 7 77 53 177 104 99 50 182 93 185 96 3 3 20
13 39 23 19 10 91 48 160 84 69 36 164 86 211 111 47 25 108 56 135 70 28 14
52 29 53 34 2 4 10 8 18 8 8 0 45 17 82 38 37 20 99 53 137 72 39 19 72 38 75
41 3 3 41 24 85 46 175 88 205 105 205 114 0 5 7 9 15 9 15 0 48 16 188 93 29
15 106 56 172 91 66 34 152 79 190 100 95 52 206 111 290 156 238 125 291 154
300 161 6 4 51 29 100 54 50 25 122 63 160 84 39 21 106 57 150 81 44 23 85
46 90 50 6 5 46 27 90 51 246 130 272 144 287 156 7 6 24 14 38 18 14 4 31 13
39 19 17 14 100 60 216 121 50 26 98 54 107 62 9 8 21 12 27 9 5 -3 11 -3 13
2 3 9 62 43 228 135 30 17 73 41 95 53 22 13 56 31 75 40 19 10 47 26 61 36
15 9 62 36 105 59 44 23 91 50 106 60 14 11 30 19 36 19 5 0 25 11 44 24 19
12 61 38 93 55 33 18 71 41 86 52 15 10 29 19 32 19 3 0 40 21 83 46 43 25 87
50 98 55 12 5 33 17 48 27 41 27 137 82 206 119 35 19 69 38 75 44 7 6 29 20
49 32 21 12 85 52 143 90 59 37 109 67 112 67 3 0 22 14 43 30 21 17 41 30 44
30 7 0 87 51 96 60 3 3 30 22 61 42 70 46 149 120 149 140 0 12 -25 18 -112
29 -62 7 -121 13 -130 12 -12 0 -18 7 -18 23 0 57 -88 114 -176 114 -22 0
-152 11 -289 25 -138 14 -255 25 -262 25 -7 0 -10 -14 -7 -37 2 -21 5 -63 8
-94 l4 -56 -146 -71 c-231 -112 -550 -266 -762 -369 -107 -53 -231 -112 -275
-133 -44 -21 -201 -97 -348 -169 -148 -72 -270 -131 -272 -131 -1 0 -141 -68
-311 -151 -170 -83 -433 -211 -584 -284 -151 -73 -365 -177 -475 -230 -360
-175 -487 -236 -680 -328 -104 -49 -224 -106 -265 -125 -41 -20 -81 -35 -89
-33 -8 1 -10 -2 -5 -10 5 -9 2 -10 -9 -6 -10 3 -17 2 -17 -4 0 -5 -12 -14 -26
-19 -15 -6 -58 -26 -97 -46 -38 -19 -76 -33 -84 -30 -8 3 -11 1 -8 -4 6 -10
-125 -81 -147 -79 -7 0 -4 5 7 10 l20 9 -20 -3 c-11 -2 -19 -8 -18 -15 3 -10
-119 -73 -487 -250 -80 -38 -219 -106 -310 -150 -91 -44 -235 -113 -320 -154
-85 -42 -231 -113 -325 -158 -93 -45 -251 -122 -350 -170 -411 -199 -1083
-525 -1130 -548 -27 -13 -115 -56 -195 -95 -337 -162 -675 -326 -985 -477
-115 -56 -246 -119 -290 -140 -44 -21 -169 -81 -278 -134 -109 -53 -203 -93
-209 -90 -6 4 -8 3 -5 -3 4 -6 -47 -36 -116 -68 -67 -32 -246 -119 -397 -193
-151 -73 -279 -134 -285 -135 -5 -1 -12 -5 -15 -8 -3 -3 -40 -22 -82 -42 -42
-20 -166 -80 -275 -133 -109 -53 -258 -125 -331 -160 -77 -37 -131 -69 -130
-76 2 -9 -8 -12 -32 -11 -59 5 -1552 142 -3225 298 -203 19 -543 51 -755 70
-212 20 -623 58 -915 85 -291 27 -798 74 -1125 105 -327 30 -665 62 -750 70
-85 8 -447 42 -805 75 -357 33 -744 69 -860 80 -115 11 -739 70 -1385 130
-3317 310 -5645 531 -6425 610 -214 22 -520 57 -680 79 -613 84 -611 84 -815
85 -147 0 -212 -3 -265 -16 -64 -15 -73 -15 -105 0 -49 22 -136 113 -194 202
-132 201 -226 490 -278 860 -9 64 -13 202 -13 425 1 286 4 353 24 500 51 383
138 731 239 955 30 67 113 203 131 214 5 4 55 -12 111 -34 111 -44 137 -47
259 -25 81 14 86 14 115 -5 17 -11 45 -26 61 -35 22 -11 311 -38 1115 -105
1214 -101 1526 -128 1943 -165 158 -14 387 -34 510 -45 235 -20 675 -59 967
-85 542 -47 2501 -217 3125 -270 226 -19 622 -53 880 -75 259 -22 512 -43 563
-47 51 -3 95 -9 97 -14 3 -4 33 -5 67 -2 41 4 59 3 55 -4 -5 -7 16 -10 63 -8
39 2 70 1 70 -3 0 -4 19 -7 43 -8 99 -3 186 -13 207 -24 15 -8 20 -8 16 -1 -8
13 18 14 116 5 45 -5 65 -10 61 -18 -4 -6 1 -5 10 2 9 8 21 10 28 6 6 -4 41
-9 78 -11 75 -5 89 -7 112 -17 9 -4 40 -8 68 -9 28 -1 51 -3 51 -5 0 -1 -10
-7 -22 -12 -22 -8 -22 -9 -2 -9 11 -1 24 3 30 9 9 9 136 -4 156 -16 5 -4 43
-7 83 -8 42 -2 80 -8 89 -15 8 -7 20 -10 25 -7 5 4 13 1 17 -5 5 -8 8 -8 14 1
5 8 9 7 13 -4 5 -11 1 -16 -13 -16 -11 0 -20 -4 -20 -10 0 -5 16 -10 35 -10
28 0 33 3 28 17 -6 14 0 15 48 9 54 -7 74 -17 74 -38 0 -14 24 -20 111 -25 53
-3 75 -1 85 10 17 16 133 12 123 -5 -3 -5 -12 -7 -20 -4 -8 3 -14 2 -14 -3 0
-4 -11 -6 -25 -3 -14 2 -25 0 -25 -6 0 -6 29 -12 65 -14 40 -2 61 0 55 7 -6 5
-10 14 -10 21 0 14 78 8 94 -7 6 -5 29 -9 51 -9 51 0 60 -8 35 -30 -19 -17
-19 -18 27 -24 27 -3 59 -8 73 -11 14 -2 63 -6 110 -9 47 -3 108 -10 135 -16
140 -31 228 -45 400 -63 17 -2 37 -6 45 -10 8 -3 89 -15 180 -26 91 -11 203
-27 250 -34 47 -8 94 -15 105 -15 45 -2 171 -24 190 -32 11 -5 31 -9 45 -9 50
0 343 -41 354 -50 11 -9 81 -18 216 -27 80 -6 112 -12 106 -22 -2 -4 11 -6 31
-4 20 3 59 0 87 -7 28 -6 116 -18 196 -27 80 -9 149 -20 154 -25 6 -5 37 -9
70 -10 34 0 86 -5 116 -10 79 -14 224 -34 380 -53 74 -10 143 -21 152 -26 9
-5 63 -12 120 -15 57 -4 110 -9 118 -12 8 -3 29 -7 45 -10 38 -6 85 -25 85
-35 0 -12 -18 -9 -26 3 -5 8 -10 6 -16 -5 -7 -13 -13 -14 -23 -6 -9 8 -14 7
-18 -4 -5 -12 5 -15 51 -15 31 0 81 -4 110 -9 52 -9 52 -9 52 17 0 23 4 26 28
25 15 0 49 -2 75 -2 62 -2 52 -22 -11 -22 l-46 0 21 -22 c20 -20 33 -22 137
-22 119 -1 155 9 128 36 -7 7 -12 15 -12 19 0 9 47 28 85 35 17 2 38 7 48 10
11 3 17 0 17 -9 0 -15 -39 -27 -89 -27 -25 -1 -25 -1 -7 -15 13 -10 23 -12 30
-5 5 5 29 10 52 10 23 0 55 6 71 14 47 24 76 35 111 41 17 4 32 11 32 16 0 5
8 9 18 9 9 0 30 7 46 15 15 8 37 15 47 15 11 0 27 4 37 10 35 19 129 60 139
60 6 0 32 9 59 21 101 42 179 69 209 70 13 1 10 4 -10 9 -61 15 68 10 480 -20
226 -17 488 -33 584 -37 l175 -6 -37 -32 c-48 -42 -121 -192 -156 -322 -9 -34
-9 -36 4 -19 8 11 15 24 15 29 0 4 5 5 12 1 6 -4 8 -3 4 4 -3 6 8 41 25 79 18
37 36 78 42 89 5 13 16 20 26 17 22 -6 87 56 83 79 -3 14 3 18 25 17 28 -1 28
-1 3 -8 -22 -6 -23 -8 -7 -14 26 -10 103 3 85 14 -8 6 -1 9 22 10 l35 1 -28
10 c-46 16 -31 43 23 43 25 0 50 4 57 8 7 4 24 5 39 1 19 -5 25 -4 20 5 -4 6
-1 11 7 11 10 0 13 8 9 27 -4 23 -2 26 9 16 7 -7 20 -13 29 -12 10 0 11 2 3 6
-7 2 -13 9 -13 15 0 6 9 3 20 -7 22 -20 44 -15 60 14 9 18 8 20 -7 14 -14 -5
-16 -3 -6 7 10 11 15 11 27 1 8 -7 21 -9 27 -5 9 5 7 11 -6 20 -23 17 -11 33
13 17 9 -6 16 -21 14 -33 -2 -19 -1 -20 14 -6 8 9 22 16 30 16 8 0 14 6 14 13
0 6 14 20 31 29 17 10 27 22 24 28 -12 19 7 10 24 -11 15 -19 20 -20 41 -8 13
8 33 22 44 32 11 9 26 17 33 17 11 0 11 4 2 21 -9 17 -8 23 2 30 11 7 11 9 -1
10 -10 0 -8 3 5 8 12 5 23 4 26 -2 4 -5 14 -7 23 -4 9 4 15 1 13 -5 -1 -7 6
-14 16 -16 10 -2 17 2 17 11 0 22 -25 38 -46 31 -17 -6 -17 -5 1 9 11 8 22 12
25 9 3 -4 15 -7 28 -8 15 0 21 5 20 15 -2 12 5 15 27 14 22 -2 26 0 15 7 -13
9 -13 10 1 10 8 0 20 -5 27 -12 7 -7 12 -8 12 -4 0 5 -8 15 -17 22 -10 7 -13
14 -6 14 6 0 26 -12 44 -27 18 -16 30 -22 25 -15 -5 8 2 12 23 12 17 0 31 4
31 9 0 6 -18 9 -40 8 -22 -1 -45 4 -52 11 -9 9 -3 10 25 5 30 -4 37 -3 37 11
0 9 8 16 18 16 13 1 12 3 -6 14 l-24 13 29 10 c34 13 78 11 116 -5 38 -16 67
-15 67 2 0 7 9 16 20 19 28 7 25 29 -7 50 -28 18 -28 18 -3 11 14 -4 26 -10
28 -14 5 -13 42 1 42 15 0 7 7 16 16 19 8 3 12 10 9 16 -7 11 8 14 18 4 4 -4
22 -8 42 -10 38 -3 61 20 35 36 -7 5 0 9 21 12 30 5 31 4 13 -10 -19 -14 -18
-14 1 -7 11 4 31 7 45 7 22 -1 23 0 8 11 -15 12 -15 14 1 24 10 6 35 9 55 6
l38 -5 -18 26 c-9 15 -14 29 -10 33 3 3 6 1 6 -5 0 -6 7 -9 17 -5 9 4 14 2 10
-3 -3 -6 3 -11 14 -11 17 -2 18 0 4 13 -18 19 -20 30 -2 17 24 -19 46 -23 40
-7 -3 7 0 14 6 14 6 0 11 5 11 11 0 8 -4 8 -15 -1 -8 -6 -19 -10 -25 -8 -7 2
5 11 24 21 34 16 36 16 36 -1 0 -10 -5 -23 -12 -30 -9 -9 -9 -12 2 -12 13 0
13 -2 0 -10 -12 -7 -11 -9 6 -8 11 1 21 8 21 15 0 6 -5 9 -10 6 -6 -4 -8 1 -4
11 4 10 7 19 7 22 0 2 12 -1 26 -6 14 -6 30 -8 35 -4 17 10 9 34 -10 34 -11 0
-23 4 -26 10 -4 6 1 7 11 3 12 -4 15 -3 10 5 -4 7 -2 12 3 12 6 0 11 -4 11
-10 0 -5 8 -10 18 -10 13 0 14 2 3 9 -9 6 -10 11 -2 15 6 4 16 4 21 1 6 -3 10
-2 10 3 0 11 71 45 78 37 4 -3 -4 -8 -16 -12 -36 -9 -25 -18 26 -19 26 0 41 1
35 3 -7 3 -13 10 -13 17 0 25 27 46 103 80 74 34 106 42 50 12 l-28 -14 27 1
c15 1 30 8 33 16 3 8 12 10 23 6 14 -5 15 -4 4 7 -10 10 -4 17 33 34 25 12 56
21 70 19 20 -2 23 0 14 11 -9 11 -7 14 12 15 49 3 85 1 103 -7 14 -5 17 -4 12
4 -4 7 -2 12 6 12 11 0 10 2 0 9 -11 7 -10 10 3 15 23 8 27 8 20 -3 -3 -5 -1
-12 4 -15 16 -10 22 11 7 23 -10 9 -20 9 -40 0 -17 -8 -23 -15 -15 -20 7 -4
-6 -7 -27 -7 l-39 0 50 24 c28 13 58 23 68 24 9 0 17 4 17 9 0 12 60 34 84 32
12 -2 16 2 11 9 -5 9 -1 10 15 5 17 -5 21 -4 15 5 -5 9 -4 11 3 6 7 -4 12 -3
12 2 0 5 8 12 18 15 9 3 100 42 202 87 102 45 191 82 198 83 6 0 12 3 12 7 0
3 24 14 53 24 28 10 68 27 87 37 19 10 60 28 90 40 30 11 76 32 101 45 36 19
48 21 59 11 10 -9 11 -9 6 1 -5 7 1 15 16 21 13 5 63 27 111 50 90 42 117 49
117 30 0 -5 5 -7 11 -3 8 5 8 9 -1 14 -17 10 75 51 98 44 11 -4 13 -3 5 3 -8
5 34 28 120 65 187 80 392 169 487 211 19 8 66 29 105 47 38 18 85 38 105 45
31 11 194 82 473 206 48 21 90 39 93 39 3 0 35 14 71 30 35 16 66 30 68 30 2
0 32 13 67 29 35 16 90 40 123 54 105 44 247 104 335 142 47 21 130 56 185 79
155 66 668 286 690 296 11 5 72 32 135 58 63 27 195 83 292 126 98 42 181 76
184 76 3 0 34 13 68 29 33 16 102 45 151 65 50 20 99 41 110 46 100 45 156 69
188 81 20 7 37 17 37 21 0 4 3 7 8 5 8 -2 144 53 152 62 3 3 14 8 25 9 11 2
35 12 55 22 19 10 134 59 255 110 121 51 236 100 255 110 19 10 71 33 115 50
44 17 105 43 135 57 30 14 71 31 90 38 19 7 64 26 100 42 36 17 116 52 178 78
61 27 112 53 112 57 0 5 4 7 10 3 5 -3 17 -1 27 4 10 6 47 22 83 38 36 15 67
31 68 35 2 4 11 8 19 8 9 0 39 11 67 23 28 13 77 34 109 47 31 12 57 26 57 29
0 4 6 8 13 8 7 0 54 18 103 41 50 23 94 42 97 42 3 0 44 18 91 40 47 22 88 40
91 40 3 0 30 11 58 24 29 13 239 106 467 206 228 100 553 245 722 321 169 76
312 139 317 139 18 0 51 58 57 102 9 62 -18 92 -104 118 -65 19 -340 43 -1092
95 -124 8 -418 29 -655 45 -236 16 -440 30 -452 30 -29 0 -30 17 -1 26 20 6
178 78 423 192 55 26 166 79 246 118 141 69 147 74 184 130 136 205 322 892
396 1464 68 529 36 1082 -82 1417 -106 301 -154 333 -449 309 -68 -5 -109 -4
-144 6 -45 12 -49 16 -65 63 -20 63 -71 103 -172 136 -72 23 -82 24 -354 22
-211 -2 -275 0 -261 9 11 6 140 64 289 129 148 65 280 125 294 134 116 76 215
455 312 1195 60 457 66 532 66 900 0 268 -4 377 -18 490 -37 303 -99 544 -168
651 -54 85 -190 159 -293 159 -30 0 -57 4 -61 10 -3 5 -9 40 -14 77 -7 61 -11
70 -46 100 -47 41 -118 68 -215 82 -189 28 -2038 177 -2050 165 -29 -29 -107
-417 -132 -659 -21 -214 -16 -726 11 -975 37 -350 97 -706 167 -984 19 -76 34
-139 32 -141 -2 -1 -140 -16 -308 -34 -168 -17 -406 -42 -530 -56 -183 -20
-787 -84 -1265 -135 -205 -22 -1701 -182 -1960 -210 -154 -17 -386 -41 -515
-55 -129 -14 -316 -34 -415 -45 -99 -11 -412 -45 -695 -75 -851 -90 -1995
-213 -2335 -250 -176 -19 -471 -51 -655 -70 -184 -20 -1064 -114 -1954 -209
-1549 -166 -1621 -173 -1664 -159 -24 9 -64 26 -87 40 -48 26 -61 55 -105 230
-23 94 -23 96 -10 88 7 -4 8 3 4 21 -5 18 -3 25 4 20 6 -4 8 2 4 16 -3 12 -7
17 -10 10 -2 -6 -8 -12 -13 -12 -4 0 -5 7 -2 17 4 11 3 14 -5 9 -8 -5 -10 -2
-5 9 5 13 7 14 14 3 7 -10 9 -9 9 5 0 14 -5 17 -20 12 -11 -3 -20 -2 -20 3 0
6 -13 88 -30 183 -33 193 -55 388 -67 584 -4 72 -9 117 -11 100 -8 -63 22
-399 62 -702 3 -18 1 -33 -3 -33 -9 0 -37 172 -34 213 1 15 -2 25 -8 22 -5 -4
-9 6 -9 22 0 15 -4 44 -10 63 -5 19 -12 64 -15 100 -3 36 -7 79 -9 95 -2 17
-4 38 -5 48 0 10 -5 16 -10 13 -5 -3 -11 1 -15 9 -3 8 -1 15 4 15 6 0 10 10
10 23 0 18 -2 19 -10 7 -8 -12 -10 -9 -10 13 0 15 6 27 13 27 8 0 8 3 -2 9
-12 8 -13 14 -2 37 6 15 8 30 4 33 -9 7 -23 31 -55 94 -46 91 -51 94 -125 96
-46 1 -70 6 -75 15 -5 9 -35 17 -79 21 -49 5 -77 13 -90 26 -11 11 -30 19 -43
19 -13 0 -26 7 -30 15 -3 10 -19 15 -44 15 -36 0 -40 3 -46 31 -4 23 -9 29
-18 21 -8 -5 -22 -6 -33 -1 -11 4 -37 8 -57 8 -21 1 -38 6 -38 11 0 6 -20 10
-44 10 -38 0 -45 3 -48 22 -3 19 -10 22 -72 25 -60 4 -72 8 -97 33 -16 16 -42
31 -59 34 -16 3 -43 9 -60 12 -16 3 -30 12 -30 19 0 9 -23 15 -71 20 -49 5
-77 13 -90 26 -14 14 -33 18 -86 18 -122 -1 -143 1 -143 12 0 5 5 7 10 4 15
-9 71 5 64 16 -3 5 -14 9 -25 9 -10 0 -19 6 -19 14 0 17 -22 22 -117 32 -40 3
-73 11 -73 15 0 5 -13 9 -29 9 -23 0 -30 5 -33 23 -3 19 -11 23 -55 27 -29 3
-49 2 -46 -4 8 -12 -60 1 -94 19 -15 8 -38 15 -50 15 -15 0 -23 7 -25 23 -2
18 -9 22 -35 22 -18 -1 -33 2 -33 7 0 4 -28 8 -62 10 -56 3 -63 6 -66 24 -2
16 -15 25 -47 34 -24 7 -48 9 -54 5 -6 -3 -11 -2 -11 3 0 5 -21 12 -47 16
-113 15 -122 17 -125 39 -3 18 -11 21 -73 24 -42 3 -76 10 -86 19 -8 8 -28 14
-43 14 -15 0 -34 7 -42 15 -9 8 -29 15 -46 15 -16 0 -43 8 -59 17 -26 16 -31
16 -39 3 -8 -12 -10 -11 -10 6 0 20 -7 23 -71 29 -51 5 -77 13 -91 27 -13 13
-29 18 -44 15 -17 -3 -28 1 -34 14 -7 13 -28 19 -76 25 -45 4 -73 13 -86 26
-11 11 -29 18 -41 18 -12 -1 -44 -2 -70 -1 -40 1 -47 4 -45 19 2 13 -5 18 -30
20 -18 2 -43 13 -54 24 -13 13 -29 18 -44 15 -13 -2 -24 -1 -24 3 0 4 -21 10
-47 14 -113 15 -122 17 -125 39 -3 18 -11 21 -72 24 -38 2 -79 11 -90 19 -11
8 -31 14 -44 14 -13 0 -30 7 -38 15 -9 8 -29 15 -46 15 -16 0 -43 8 -59 17
-26 16 -31 16 -39 3 -8 -12 -10 -11 -10 6 0 20 -7 23 -72 29 -39 4 -78 14 -86
21 -21 22 -63 29 -73 13 -6 -10 -9 -5 -9 17 0 30 -3 32 -47 39 -27 3 -59 8
-73 9 -14 2 -35 8 -47 14 -12 7 -33 12 -46 12 -14 0 -27 6 -30 14 -4 9 -29 17
-73 21 -43 5 -73 14 -84 25 -13 13 -35 18 -79 19 -34 0 -74 7 -91 16 -16 8
-38 15 -49 15 -13 0 -21 8 -23 23 -2 18 -9 22 -35 22 -18 -1 -33 3 -33 7 0 4
-18 8 -39 8 -24 0 -41 5 -44 14 -3 7 -25 16 -49 19 -42 6 -82 15 -163 36 -22
6 -54 11 -71 11 -19 0 -34 6 -38 15 -3 9 -19 15 -41 15 -19 0 -35 5 -35 10 0
6 -18 10 -41 10 -22 0 -49 4 -59 10 -10 5 -44 13 -76 16 -33 4 -63 13 -69 19
-5 7 -28 15 -50 19 -40 6 -85 16 -160 35 -22 6 -54 11 -71 11 -18 0 -34 6 -37
14 -3 7 -25 16 -49 19 -23 4 -63 11 -88 17 -25 7 -72 16 -105 22 -33 6 -69 14
-80 19 -11 4 -54 13 -95 18 -72 10 -110 18 -195 40 -22 6 -55 11 -72 11 -21 0
-33 5 -33 14 0 9 -17 16 -47 19 -27 4 -68 11 -93 17 -43 11 -175 28 -232 29
-17 1 -28 7 -28 15 0 9 -17 16 -47 19 -27 4 -68 11 -93 18 -25 6 -75 13 -112
16 -57 4 -68 8 -68 23 0 13 -11 19 -47 23 -27 4 -68 11 -93 17 -43 11 -175 28
-232 29 -17 1 -28 7 -28 15 0 9 -17 16 -47 19 -27 4 -68 11 -93 18 -25 6 -75
13 -112 16 -60 4 -68 7 -68 25 0 18 -5 20 -45 16 -38 -3 -45 0 -47 16 -3 17
-13 20 -73 23 -38 3 -72 8 -75 12 -8 13 -108 34 -140 29 -23 -4 -30 0 -32 16
-3 21 -8 22 -110 25 -31 1 -38 5 -38 21 0 18 -6 20 -72 19 -40 0 -94 -4 -120
-8 -27 -4 -48 -4 -48 1 0 4 18 8 40 8 29 0 40 4 40 15 0 11 -11 15 -40 15 -22
0 -40 5 -40 10 0 6 -18 10 -40 10 -30 0 -40 4 -40 16 0 14 -9 16 -62 12 -35
-2 -53 -3 -40 -1 37 7 25 23 -17 23 -22 0 -42 -5 -44 -12 -3 -7 -6 -4 -6 7 -1
14 -4 16 -13 7 -9 -9 -14 -7 -23 5 -12 16 -40 9 -30 -8 4 -5 4 -9 0 -9 -3 0
-9 10 -14 23 -7 18 -9 16 -8 -15z m690 -215 c-7 -2 -19 -2 -25 0 -7 3 -2 5 12
5 14 0 19 -2 13 -5z m1200 -320 c-7 -2 -19 -2 -25 0 -7 3 -2 5 12 5 14 0 19
-2 13 -5z m320 -80 c-7 -2 -19 -2 -25 0 -7 3 -2 5 12 5 14 0 19 -2 13 -5z
m720 -160 c-7 -2 -19 -2 -25 0 -7 3 -2 5 12 5 14 0 19 -2 13 -5z m427 -47 c0
-2 -13 -6 -30 -8 -16 -3 -30 -1 -30 4 0 4 14 8 30 8 17 0 30 -2 30 -4z m693
-193 c-7 -2 -19 -2 -25 0 -7 3 -2 5 12 5 14 0 19 -2 13 -5z m655 -160 c-10 -2
-26 -2 -35 0 -10 3 -2 5 17 5 19 0 27 -2 18 -5z m1520 -480 c-10 -2 -26 -2
-35 0 -10 3 -2 5 17 5 19 0 27 -2 18 -5z m1629 -519 c-3 -3 -12 -4 -19 -1 -8
3 -5 6 6 6 11 1 17 -2 13 -5z m960 -320 c-3 -3 -12 -4 -19 -1 -8 3 -5 6 6 6
11 1 17 -2 13 -5z m780 -1114 c-4 -17 -2 -30 3 -30 6 0 10 -8 10 -17 0 -13 -3
-14 -11 -6 -15 15 -21 83 -7 83 6 0 8 -12 5 -30z m23 -91 c0 -6 -4 -7 -10 -4
-5 3 -10 11 -10 16 0 6 5 7 10 4 6 -3 10 -11 10 -16z m38 -174 c-3 -3 -9 2
-12 12 -6 14 -5 15 5 6 7 -7 10 -15 7 -18z m1070 -542 c-10 -2 -28 -2 -40 0
-13 2 -5 4 17 4 22 1 32 -1 23 -4z m-808 -37 c6 -19 14 -36 18 -38 10 -4 72
-126 72 -140 0 -12 -12 7 -71 110 -29 50 -49 102 -39 102 5 0 14 -15 20 -34z
m708 27 c-10 -2 -28 -2 -40 0 -13 2 -5 4 17 4 22 1 32 -1 23 -4z m-4108 -19
c0 -2 -7 -4 -15 -4 -8 0 -15 4 -15 10 0 5 7 7 15 4 8 -4 15 -8 15 -10z m3560
-5 c0 -5 -18 -9 -40 -9 -22 0 -40 4 -40 9 0 6 18 9 40 9 22 0 40 -4 40 -9z
m292 -1 c-17 -8 -26 -8 -34 0 -9 9 -4 12 23 11 32 0 33 -1 11 -11z m-3770 -16
c11 -14 11 -15 -5 -9 -10 4 -37 8 -60 8 -39 1 -40 2 -12 8 51 11 63 10 77 -7z
m3535 12 c-3 -3 -12 -4 -19 -1 -8 3 -5 6 6 6 11 1 17 -2 13 -5z m110 0 c-3 -3
-12 -4 -19 -1 -8 3 -5 6 6 6 11 1 17 -2 13 -5z m-3577 -24 c0 -5 -4 -10 -9
-10 -6 0 -13 5 -16 10 -3 6 1 10 9 10 9 0 16 -4 16 -10z m4127 -4546 c-3 -3
-12 -4 -19 -1 -8 3 -5 6 6 6 11 1 17 -2 13 -5z m1653 -154 c13 -9 13 -10 0
-10 -8 0 -22 5 -30 10 -13 9 -13 10 0 10 8 0 22 -5 30 -10z m93 -7 c-13 -2
-33 -2 -45 0 -13 2 -3 4 22 4 25 0 35 -2 23 -4z m811 -469 c3 -8 2 -12 -4 -9
-6 3 -10 10 -10 16 0 14 7 11 14 -7z m13273 -1796 c-3 -8 -6 -5 -6 6 -1 11 2
17 5 13 3 -3 4 -12 1 -19z m-437 -322 c0 -2 -7 -7 -16 -10 -8 -3 -12 -2 -9 4
6 10 25 14 25 6z m-41 -30 c-5 -4 -425 -243 -504 -286 -33 -18 -100 -55 -149
-81 -49 -27 -112 -61 -140 -75 -28 -14 -67 -35 -86 -46 -31 -18 -105 -57 -405
-212 -44 -22 -82 -44 -85 -47 -3 -4 -27 -18 -55 -31 -46 -23 -315 -161 -589
-302 -60 -31 -115 -56 -123 -56 -8 0 -11 -5 -7 -12 5 -7 2 -9 -9 -5 -9 3 -17
3 -19 -1 -2 -5 -20 -18 -41 -31 -31 -19 -41 -21 -50 -11 -9 10 -9 12 4 7 9 -3
20 3 27 14 7 10 15 18 20 17 7 -2 88 38 262 129 52 28 142 74 200 104 58 30
107 56 110 59 5 6 50 26 62 29 5 1 25 11 45 22 38 22 262 139 383 201 36 18
67 35 70 39 3 3 43 24 90 48 47 24 108 56 135 71 28 15 120 64 205 110 216
115 308 166 490 270 111 64 155 87 159 83 2 -2 2 -5 0 -7z m-9849 -1121 c-14
-8 -29 -14 -35 -14 -5 0 1 6 15 14 14 8 30 14 35 14 6 0 -1 -6 -15 -14z m-60
-25 c-8 -5 -22 -9 -30 -9 -10 0 -8 3 5 9 27 12 43 12 25 0z m7625 -70 c-27
-12 -43 -12 -25 0 8 5 22 9 30 9 10 0 8 -3 -5 -9z m-41 -19 c3 -5 -3 -11 -14
-14 -22 -6 -37 8 -18 16 20 8 26 8 32 -2z m-49 -21 c3 -5 -27 -25 -67 -45 -83
-40 -78 -38 -78 -25 0 10 84 50 107 50 8 0 12 4 9 9 -4 5 0 12 6 14 7 3 14 6
15 6 1 1 5 -3 8 -9z m-7750 -11 c7 -10 -30 -49 -47 -49 -12 0 -10 9 10 35 19
27 28 30 37 14z m-60 -20 c-7 -11 -35 -12 -35 -1 0 4 9 8 20 9 11 1 18 -2 15
-8z m-8045 -10 c0 -7 12 -10 33 -7 17 3 41 2 52 -2 17 -6 16 -8 -11 -14 -39
-9 -81 1 -88 20 -3 8 -1 14 4 14 6 0 10 -5 10 -11z m15687 -44 c0 -19 -27 -29
-41 -15 -8 8 -6 9 8 4 13 -5 17 -4 13 3 -4 6 -1 14 5 16 7 3 13 6 14 6 0 1 1
-6 1 -14z m-15042 -45 c13 -22 -6 -30 -36 -15 -16 9 -29 18 -29 20 0 10 59 5
65 -5z m7121 -5 c-11 -8 -27 -15 -35 -15 -9 1 -2 7 14 15 39 18 44 18 21 0z
m7810 -15 c-22 -11 -41 -18 -43 -16 -5 4 59 36 72 35 6 0 -8 -9 -29 -19z
m-14703 -17 c-13 -2 -35 -2 -50 0 -16 2 -5 4 22 4 28 0 40 -2 28 -4z m6777
-23 c-8 -5 -22 -10 -30 -10 -13 0 -13 1 0 10 8 5 22 10 30 10 13 0 13 -1 0
-10z m7740 -55 c-25 -13 -49 -24 -55 -24 -5 0 10 11 35 24 25 13 50 24 55 24
6 0 -10 -11 -35 -24z m-7805 5 c3 -5 2 -10 -4 -10 -5 0 -13 5 -16 10 -3 6 -2
10 4 10 5 0 13 -4 16 -10z m-69 -45 c-11 -8 -31 -15 -45 -14 -24 0 -23 2 9 14
46 18 59 18 36 0z m7793 -6 c-22 -13 -31 -11 -17 5 7 8 17 12 22 9 4 -3 2 -9
-5 -14z m-7859 -31 c0 -6 -6 -5 -15 2 -8 7 -15 14 -15 16 0 2 7 1 15 -2 8 -4
15 -11 15 -16z m85 12 c-3 -5 -16 -10 -28 -9 -20 1 -20 2 3 9 14 4 26 8 28 9
2 1 0 -3 -3 -9z m7732 4 c-3 -3 -12 -4 -19 -1 -8 3 -5 6 6 6 11 1 17 -2 13 -5z
m-7853 -12 c2 -4 -4 -8 -14 -8 -10 0 -16 4 -14 8 3 4 9 8 14 8 5 0 11 -4 14
-8z m7751 -38 c-38 -19 -76 -34 -85 -33 -8 0 -3 5 12 10 15 6 49 21 75 34 26
13 53 24 58 24 6 0 -21 -16 -60 -35z m-7795 6 c0 -5 -4 -10 -10 -10 -5 0 -10
5 -10 10 0 6 5 10 10 10 6 0 10 -4 10 -10z m-160 -30 c-8 -5 -19 -10 -25 -10
-5 0 -3 5 5 10 8 5 20 10 25 10 6 0 3 -5 -5 -10z m70 0 c-8 -5 -22 -9 -30 -9
-10 0 -8 3 5 9 27 12 43 12 25 0z m-20 -32 c0 -5 -8 -4 -19 1 -10 6 -22 7 -26
3 -5 -4 -5 -2 -2 5 8 13 47 6 47 -9z m7810 8 c0 -2 -7 -7 -16 -10 -8 -3 -12
-2 -9 4 6 10 25 14 25 6z m-68 -36 c-18 -11 -38 -20 -45 -20 -13 0 53 39 68
39 6 1 -5 -8 -23 -19z m-78 -35 c-10 -8 -23 -15 -28 -15 -6 0 -1 7 10 15 10 8
23 15 28 15 6 0 1 -7 -10 -15z m-74 -39 c0 -2 -7 -7 -16 -10 -8 -3 -12 -2 -9
4 6 10 25 14 25 6z m-7960 -10 c0 -2 -7 -7 -16 -10 -8 -3 -12 -2 -9 4 6 10 25
14 25 6z m90 -6 c0 -5 -7 -7 -15 -4 -8 4 -15 8 -15 10 0 2 7 4 15 4 8 0 15 -4
15 -10z m7830 0 c0 -5 -5 -10 -11 -10 -5 0 -7 5 -4 10 3 6 8 10 11 10 2 0 4
-4 4 -10z m-7862 -17 c-10 -2 -26 -2 -35 0 -10 3 -2 5 17 5 19 0 27 -2 18 -5z
m7818 -8 c-11 -8 -24 -15 -30 -15 -5 0 -1 7 10 15 10 8 24 14 29 14 6 0 1 -6
-9 -14z m-7892 -20 c-6 -16 -24 -21 -24 -7 0 11 11 22 21 22 5 0 6 -7 3 -15z
m7816 -15 c0 -5 -8 -10 -17 -10 -15 0 -16 2 -3 10 19 12 20 12 20 0z m-7841
-27 c-6 -6 -17 -9 -25 -6 -8 3 -14 -1 -14 -8 0 -7 -2 -10 -5 -7 -13 12 9 37
30 36 18 -2 21 -5 14 -15z m7751 -18 c-7 -8 -18 -15 -24 -15 -6 0 -2 7 8 15
25 19 32 19 16 0z m-70 -35 c0 -5 -8 -10 -17 -10 -15 0 -16 2 -3 10 19 12 20
12 20 0z m-10200 -40 c0 -11 -7 -20 -15 -20 -15 0 -21 21 -8 33 12 13 23 7 23
-13z m58 -21 c-12 -7 -24 -7 -35 0 -15 9 -12 10 17 10 29 0 32 -1 18 -10z
m9832 -93 c0 -2 -7 -6 -15 -10 -8 -3 -15 -1 -15 4 0 6 7 10 15 10 8 0 15 -2
15 -4z m-170 -86 c-8 -5 -19 -10 -25 -10 -5 0 -3 5 5 10 8 5 20 10 25 10 6 0
3 -5 -5 -10z m-470 -234 c0 -2 -7 -7 -16 -10 -8 -3 -12 -2 -9 4 6 10 25 14 25
6z m-15253 -2292 c-3 -3 -12 -4 -19 -1 -8 3 -5 6 6 6 11 1 17 -2 13 -5z m190
-20 c-3 -3 -12 -4 -19 -1 -8 3 -5 6 6 6 11 1 17 -2 13 -5z m206 -21 c-7 -2
-19 -2 -25 0 -7 3 -2 5 12 5 14 0 19 -2 13 -5z m210 -20 c-7 -2 -21 -2 -30 0
-10 3 -4 5 12 5 17 0 24 -2 18 -5z m205 -20 c-10 -2 -26 -2 -35 0 -10 3 -2 5
17 5 19 0 27 -2 18 -5z m200 -20 c-10 -2 -26 -2 -35 0 -10 3 -2 5 17 5 19 0
27 -2 18 -5z m210 -20 c-10 -2 -26 -2 -35 0 -10 3 -2 5 17 5 19 0 27 -2 18 -5z
m200 -20 c-10 -2 -26 -2 -35 0 -10 3 -2 5 17 5 19 0 27 -2 18 -5z m105 -10
c-7 -2 -21 -2 -30 0 -10 3 -4 5 12 5 17 0 24 -2 18 -5z m200 -20 c-7 -2 -19
-2 -25 0 -7 3 -2 5 12 5 14 0 19 -2 13 -5z m205 -20 c-10 -2 -26 -2 -35 0 -10
3 -2 5 17 5 19 0 27 -2 18 -5z m89 -9 c-3 -3 -12 -4 -19 -1 -8 3 -5 6 6 6 11
1 17 -2 13 -5z m80 -10 c-3 -3 -12 -4 -19 -1 -8 3 -5 6 6 6 11 1 17 -2 13 -5z
m46 -1 c-7 -2 -19 -2 -25 0 -7 3 -2 5 12 5 14 0 19 -2 13 -5z m180 -20 c-7 -2
-21 -2 -30 0 -10 3 -4 5 12 5 17 0 24 -2 18 -5z m215 -20 c-10 -2 -28 -2 -40
0 -13 2 -5 4 17 4 22 1 32 -1 23 -4z m85 -10 c-7 -2 -21 -2 -30 0 -10 3 -4 5
12 5 17 0 24 -2 18 -5z m100 -10 c-7 -2 -21 -2 -30 0 -10 3 -4 5 12 5 17 0 24
-2 18 -5z m190 -20 c-7 -2 -21 -2 -30 0 -10 3 -4 5 12 5 17 0 24 -2 18 -5z
m110 -10 c-7 -2 -19 -2 -25 0 -7 3 -2 5 12 5 14 0 19 -2 13 -5z m100 -10 c-7
-2 -21 -2 -30 0 -10 3 -4 5 12 5 17 0 24 -2 18 -5z m100 -10 c-7 -2 -19 -2
-25 0 -7 3 -2 5 12 5 14 0 19 -2 13 -5z m100 -10 c-7 -2 -19 -2 -25 0 -7 3 -2
5 12 5 14 0 19 -2 13 -5z m130 -10 c-7 -2 -21 -2 -30 0 -10 3 -4 5 12 5 17 0
24 -2 18 -5z m284 -29 c-3 -3 -12 -4 -19 -1 -8 3 -5 6 6 6 11 1 17 -2 13 -5z
m206 -21 c-7 -2 -19 -2 -25 0 -7 3 -2 5 12 5 14 0 19 -2 13 -5z m194 -19 c-3
-3 -12 -4 -19 -1 -8 3 -5 6 6 6 11 1 17 -2 13 -5z m210 -20 c-3 -3 -12 -4 -19
-1 -8 3 -5 6 6 6 11 1 17 -2 13 -5z"/>
<path d="M20316 18545 c-3 -9 0 -15 9 -15 16 0 20 16 6 24 -5 3 -11 -1 -15 -9z"/>
<path d="M20003 18493 c9 -2 25 -2 35 0 9 3 1 5 -18 5 -19 0 -27 -2 -17 -5z"/>
<path d="M19280 18380 c0 -13 11 -13 30 0 12 8 11 10 -7 10 -13 0 -23 -4 -23
-10z"/>
<path d="M16710 18319 c0 -5 18 -9 40 -9 22 0 40 4 40 8 0 4 -18 8 -40 9 -22
1 -40 -2 -40 -8z"/>
<path d="M17068 18293 c7 -3 16 -2 19 1 4 3 -2 6 -13 5 -11 0 -14 -3 -6 -6z"/>
<path d="M17408 18268 c16 -8 28 -8 45 0 19 9 17 11 -23 11 -40 0 -42 -2 -22
-11z"/>
<path d="M18593 18143 c9 -2 23 -2 30 0 6 3 -1 5 -18 5 -16 0 -22 -2 -12 -5z"/>
<path d="M18384 18122 c5 -8 66 -4 66 4 0 2 -16 4 -36 4 -19 0 -33 -4 -30 -8z"/>
<path d="M18300 18116 c0 -10 28 -13 41 -5 10 6 7 9 -13 9 -16 0 -28 -2 -28
-4z"/>
<path d="M16220 17790 c0 -13 11 -13 30 0 12 8 11 10 -7 10 -13 0 -23 -4 -23
-10z"/>
<path d="M15085 17420 c3 -5 8 -10 11 -10 2 0 4 5 4 10 0 6 -5 10 -11 10 -5 0
-7 -4 -4 -10z"/>
<path d="M16300 16021 c0 -25 6 -27 13 -6 4 8 2 17 -3 20 -6 4 -10 -3 -10 -14z"/>
<path d="M16380 15991 c5 -14 11 -33 13 -41 3 -8 6 3 6 26 1 28 -3 41 -13 41
-10 0 -12 -7 -6 -26z"/>
<path d="M13618 15003 c12 -2 30 -2 40 0 9 3 -1 5 -23 4 -22 0 -30 -2 -17 -4z"/>
<path d="M17680 14290 c0 -5 18 -10 40 -10 22 0 40 5 40 10 0 6 -18 10 -40 10
-22 0 -40 -4 -40 -10z"/>
<path d="M17895 14280 c3 -5 10 -10 16 -10 5 0 9 5 9 10 0 6 -7 10 -16 10 -8
0 -12 -4 -9 -10z"/>
<path d="M17948 14273 c7 -3 16 -2 19 1 4 3 -2 6 -13 5 -11 0 -14 -3 -6 -6z"/>
<path d="M19741 13894 c0 -11 3 -14 6 -6 3 7 2 16 -1 19 -3 4 -6 -2 -5 -13z"/>
<path d="M19769 13748 c4 -27 6 -29 9 -10 2 14 10 22 22 22 10 0 22 5 25 10 4
6 -8 10 -28 10 -32 0 -33 -1 -28 -32z"/>
<path d="M19800 13740 c0 -5 5 -10 10 -10 6 0 10 5 10 10 0 6 -4 10 -10 10 -5
0 -10 -4 -10 -10z"/>
<path d="M13570 10999 c0 -5 5 -7 10 -4 6 3 10 8 10 11 0 2 -4 4 -10 4 -5 0
-10 -5 -10 -11z"/>
<path d="M14718 10913 c6 -2 18 -2 25 0 6 3 1 5 -13 5 -14 0 -19 -2 -12 -5z"/>
<path d="M15252 10873 c-12 -2 -20 -9 -17 -14 4 -5 13 -5 24 1 10 5 21 6 25 3
3 -3 6 -1 6 5 0 7 -3 11 -7 11 -5 -1 -18 -4 -31 -6z"/>
<path d="M15398 10863 c7 -3 16 -2 19 1 4 3 -2 6 -13 5 -11 0 -14 -3 -6 -6z"/>
<path d="M15530 10845 c14 -8 30 -14 35 -14 6 0 -1 6 -15 14 -14 8 -29 14 -35
14 -5 0 1 -6 15 -14z"/>
<path d="M15245 10840 c-16 -7 -13 -9 18 -9 20 -1 37 4 37 9 0 12 -27 12 -55
0z"/>
<path d="M15383 10835 c-46 -20 -41 -25 10 -10 23 6 49 10 57 8 13 -4 13 -3 0
6 -19 14 -28 13 -67 -4z"/>
<path d="M15648 10843 c7 -3 16 -2 19 1 4 3 -2 6 -13 5 -11 0 -14 -3 -6 -6z"/>
<path d="M15643 10823 c9 -2 23 -2 30 0 6 3 -1 5 -18 5 -16 0 -22 -2 -12 -5z"/>
<path d="M16128 10753 c7 -3 16 -2 19 1 4 3 -2 6 -13 5 -11 0 -14 -3 -6 -6z"/>
<path d="M16288 10753 c7 -3 16 -2 19 1 4 3 -2 6 -13 5 -11 0 -14 -3 -6 -6z"/>
<path d="M16998 10703 c7 -3 16 -2 19 1 4 3 -2 6 -13 5 -11 0 -14 -3 -6 -6z"/>
<path d="M14728 10693 c7 -3 16 -2 19 1 4 3 -2 6 -13 5 -11 0 -14 -3 -6 -6z"/>
<path d="M17278 10693 c7 -3 16 -2 19 1 4 3 -2 6 -13 5 -11 0 -14 -3 -6 -6z"/>
<path d="M17318 10673 c7 -3 16 -2 19 1 4 3 -2 6 -13 5 -11 0 -14 -3 -6 -6z"/>
<path d="M15600 10650 c0 -7 14 -8 38 -4 51 9 53 14 4 14 -23 0 -42 -5 -42
-10z"/>
<path d="M15158 10643 c6 -2 18 -2 25 0 6 3 1 5 -13 5 -14 0 -19 -2 -12 -5z"/>
<path d="M15395 10630 l-50 -7 45 -1 c25 -1 52 3 60 8 8 5 11 9 5 8 -5 -1 -32
-4 -60 -8z"/>
<path d="M18138 10613 c7 -3 16 -2 19 1 4 3 -2 6 -13 5 -11 0 -14 -3 -6 -6z"/>
<path d="M18188 10593 c7 -3 16 -2 19 1 4 3 -2 6 -13 5 -11 0 -14 -3 -6 -6z"/>
<path d="M18370 10596 c0 -2 9 -6 20 -9 11 -3 18 -1 14 4 -5 9 -34 13 -34 5z"/>
<path d="M19890 9913 c0 -9 8 -11 25 -7 15 4 32 1 40 -6 12 -10 15 -9 15 6 1
18 1 18 15 0 8 -11 15 -16 15 -10 0 21 -18 29 -62 29 -33 1 -48 -3 -48 -12z"/>
<path d="M25300 7820 c-8 -5 -10 -10 -5 -10 6 0 17 5 25 10 8 5 11 10 5 10 -5
0 -17 -5 -25 -10z"/>
<path d="M24880 7650 c-8 -5 -12 -11 -9 -14 2 -3 11 -1 19 4 8 5 12 11 9 14
-2 3 -11 1 -19 -4z"/>
<path d="M24760 7600 c-8 -5 -10 -10 -5 -10 6 0 17 5 25 10 8 5 11 10 5 10 -5
0 -17 -5 -25 -10z"/>
<path d="M24735 7570 c3 -5 11 -10 16 -10 6 0 7 5 4 10 -3 6 -11 10 -16 10 -6
0 -7 -4 -4 -10z"/>
<path d="M24685 7560 c-3 -5 -1 -10 4 -10 6 0 11 5 11 10 0 6 -2 10 -4 10 -3
0 -8 -4 -11 -10z"/>
<path d="M24595 7520 c-3 -6 1 -7 9 -4 18 7 21 14 7 14 -6 0 -13 -4 -16 -10z"/>
<path d="M24500 7486 c0 -2 7 -7 16 -10 8 -3 12 -2 9 4 -6 10 -25 14 -25 6z"/>
<path d="M24467 7466 c-4 -10 -1 -13 8 -9 8 3 12 9 9 14 -7 12 -11 11 -17 -5z"/>
<path d="M24330 7396 c0 -2 7 -7 16 -10 8 -3 12 -2 9 4 -6 10 -25 14 -25 6z"/>
<path d="M24194 7345 c-17 -13 -17 -14 -1 -15 9 0 17 4 17 9 0 5 8 12 18 14
13 4 14 5 1 6 -8 0 -24 -6 -35 -14z"/>
<path d="M24115 7316 l-30 -13 27 0 c15 0 29 6 32 13 3 8 4 14 3 14 -1 -1 -15
-7 -32 -14z"/>
<path d="M24050 7280 c0 -5 5 -10 10 -10 6 0 10 5 10 10 0 6 -4 10 -10 10 -5
0 -10 -4 -10 -10z"/>
<path d="M23966 7240 c-17 -5 -17 -7 -1 -20 9 -7 15 -9 14 -4 -3 19 2 29 9 17
4 -7 13 -9 21 -4 17 11 -17 20 -43 11z"/>
<path d="M23904 7228 c-4 -7 -4 -10 1 -6 4 4 16 3 26 -3 11 -5 19 -7 19 -5 0
3 -9 10 -19 16 -15 7 -22 7 -27 -2z"/>
<path d="M23595 7087 c-17 -13 -17 -14 6 -20 13 -3 25 -4 28 -2 2 3 -1 5 -7 5
-7 0 -12 5 -12 11 0 6 7 8 15 5 38 -15 48 -16 25 -2 -31 19 -32 19 -55 3z"/>
<path d="M23445 7010 c3 -5 10 -10 16 -10 5 0 9 5 9 10 0 6 -7 10 -16 10 -8 0
-12 -4 -9 -10z"/>
<path d="M23490 7010 c0 -5 4 -10 9 -10 6 0 13 5 16 10 3 6 -1 10 -9 10 -9 0
-16 -4 -16 -10z"/>
<path d="M23400 7000 c-11 -7 -11 -10 -2 -10 7 0 11 -4 7 -9 -3 -6 7 -8 22 -7
16 2 35 4 43 5 8 1 0 8 -19 16 -39 18 -33 17 -51 5z"/>
<path d="M23365 6980 c3 -5 8 -10 11 -10 2 0 4 5 4 10 0 6 -5 10 -11 10 -5 0
-7 -4 -4 -10z"/>
<path d="M23260 6915 c-20 -8 -27 -14 -17 -14 10 -1 16 -5 13 -10 -4 -5 3 -7
15 -4 16 4 17 8 7 14 -9 6 -2 9 20 9 20 0 31 4 27 10 -8 13 -22 12 -65 -5z"/>
<path d="M31525 6900 c3 -6 1 -10 -6 -10 -7 0 -10 -3 -6 -6 3 -3 13 -2 22 4
16 8 16 9 1 15 -10 4 -15 3 -11 -3z"/>
<path d="M27465 6840 c-13 -6 -15 -9 -5 -9 8 0 22 4 30 9 18 12 2 12 -25 0z"/>
<path d="M27345 6790 c-3 -5 -1 -10 4 -10 6 0 11 5 11 10 0 6 -2 10 -4 10 -3
0 -8 -4 -11 -10z"/>
<path d="M13110 6780 c8 -5 22 -10 30 -10 13 0 13 1 0 10 -8 5 -22 10 -30 10
-13 0 -13 -1 0 -10z"/>
<path d="M13190 6772 c0 -5 14 -7 30 -4 17 2 30 6 30 8 0 2 -13 4 -30 4 -16 0
-30 -4 -30 -8z"/>
<path d="M22935 6760 c3 -5 14 -10 23 -10 15 0 15 2 2 10 -20 13 -33 13 -25 0z"/>
<path d="M27135 6710 c-19 -8 -19 -9 2 -9 12 -1 25 4 28 9 7 12 -2 12 -30 0z"/>
<path d="M13840 6690 c0 -5 7 -10 15 -10 8 0 15 5 15 10 0 6 -7 10 -15 10 -8
0 -15 -4 -15 -10z"/>
<path d="M22755 6685 c-36 -12 -37 -14 -12 -14 16 -1 26 -5 22 -11 -7 -12 5
-13 20 -2 9 6 21 44 13 41 -2 -1 -21 -7 -43 -14z"/>
<path d="M27080 6690 c0 -5 -7 -10 -17 -10 -9 0 -14 -2 -11 -5 8 -9 58 6 58
16 0 5 -7 9 -15 9 -8 0 -15 -4 -15 -10z"/>
<path d="M14008 6683 c7 -3 16 -2 19 1 4 3 -2 6 -13 5 -11 0 -14 -3 -6 -6z"/>
<path d="M13953 6673 c9 -2 23 -2 30 0 6 3 -1 5 -18 5 -16 0 -22 -2 -12 -5z"/>
<path d="M14048 6673 c6 -2 18 -2 25 0 6 3 1 5 -13 5 -14 0 -19 -2 -12 -5z"/>
<path d="M14090 6676 c0 -2 7 -7 16 -10 8 -3 12 -2 9 4 -6 10 -25 14 -25 6z"/>
<path d="M14140 6660 c-9 -6 -10 -10 -3 -10 6 0 15 5 18 10 8 12 4 12 -15 0z"/>
<path d="M27005 6660 c-19 -8 -19 -9 3 -9 12 -1 22 4 22 9 0 6 -1 10 -2 9 -2
0 -12 -4 -23 -9z"/>
<path d="M14048 6653 c12 -2 30 -2 40 0 9 3 -1 5 -23 4 -22 0 -30 -2 -17 -4z"/>
<path d="M14268 6644 c13 -9 26 -13 30 -9 8 8 -17 25 -38 25 -9 0 -6 -6 8 -16z"/>
<path d="M22680 6625 c0 -14 5 -25 10 -25 6 0 10 4 10 9 0 5 3 16 6 25 4 11 1
16 -10 16 -10 0 -16 -9 -16 -25z"/>
<path d="M26898 6620 c-26 -9 -51 -20 -55 -23 -12 -13 32 -7 61 8 15 8 34 15
42 15 7 0 16 5 19 10 8 13 -10 11 -67 -10z"/>
<path d="M14472 6605 c-11 -13 -10 -15 7 -15 14 0 19 5 15 15 -7 18 -6 18 -22
0z"/>
<path d="M22450 6590 c-12 -8 -9 -10 12 -10 14 0 35 -3 45 -6 16 -6 16 -5 -2
9 -23 19 -34 20 -55 7z"/>
<path d="M26815 6580 c-3 -5 -1 -10 4 -10 6 0 11 5 11 10 0 6 -2 10 -4 10 -3
0 -8 -4 -11 -10z"/>
<path d="M14715 6560 c3 -5 10 -10 16 -10 5 0 9 5 9 10 0 6 -7 10 -16 10 -8 0
-12 -4 -9 -10z"/>
<path d="M26755 6561 c-16 -4 -51 -18 -77 -29 -26 -12 -52 -22 -58 -22 -10 0
-86 -31 -120 -49 -8 -4 -36 -14 -62 -22 -27 -7 -48 -17 -48 -21 0 -4 -11 -8
-24 -8 -14 0 -28 -4 -31 -10 -3 -5 -14 -10 -23 -10 -10 0 -35 -9 -56 -19 -21
-11 -52 -23 -69 -27 -18 -4 -41 -12 -52 -19 -11 -7 -62 -27 -112 -45 -51 -18
-93 -36 -93 -40 0 -4 -18 -10 -40 -14 -22 -3 -40 -11 -40 -17 0 -5 -4 -8 -8
-5 -8 5 -90 -26 -187 -69 -16 -7 -57 -22 -90 -33 -69 -23 -354 -135 -402 -157
-17 -8 -34 -15 -38 -15 -4 0 -21 -6 -38 -14 -18 -8 -86 -35 -152 -61 -66 -25
-129 -50 -140 -55 -11 -5 -85 -34 -165 -65 -80 -31 -217 -85 -305 -120 -88
-35 -209 -82 -270 -105 -60 -23 -114 -46 -119 -51 -6 -5 -17 -9 -25 -9 -9 0
-27 -6 -41 -13 -14 -7 -54 -23 -90 -36 -36 -13 -89 -34 -118 -47 -29 -13 -57
-24 -62 -24 -6 0 -33 -11 -60 -24 -28 -14 -65 -28 -83 -31 -18 -4 -36 -11 -42
-15 -5 -4 -37 -17 -70 -29 -33 -12 -73 -28 -90 -36 -16 -8 -79 -33 -140 -56
-118 -43 -130 -48 -187 -73 -20 -9 -39 -16 -42 -16 -3 0 -25 -9 -49 -19 -23
-10 -55 -24 -72 -29 -36 -12 -407 -158 -450 -176 -16 -8 -75 -31 -130 -51 -55
-21 -147 -57 -205 -80 -58 -23 -122 -48 -143 -54 -27 -9 -39 -20 -43 -39 -4
-15 -11 -33 -17 -40 -19 -24 3 -25 56 -2 28 12 61 26 72 30 26 10 95 39 120
50 11 5 101 41 200 80 99 39 205 82 236 96 31 13 59 24 62 24 4 0 48 18 99 39
51 21 140 58 198 81 58 22 114 45 125 50 11 4 40 16 65 25 25 9 59 23 75 30
17 7 77 32 135 55 58 22 114 45 125 50 11 4 40 16 65 25 25 9 59 23 75 30 28
12 229 93 340 136 28 11 59 24 70 29 11 5 79 32 150 60 72 29 144 58 162 66
17 8 35 14 40 14 4 1 26 9 48 20 22 11 43 19 47 20 7 0 245 97 333 135 17 7
77 31 135 53 58 22 168 66 245 97 77 32 167 68 200 80 65 25 189 75 330 134
50 21 107 44 128 52 20 7 37 17 37 21 0 4 11 8 24 8 14 0 27 4 31 9 3 5 19 13
36 16 17 4 50 15 73 25 22 10 82 34 131 55 50 21 108 45 130 55 22 9 74 30
115 45 69 26 116 46 225 95 53 24 107 44 125 47 15 2 28 7 110 46 56 26 58 31
5 18z"/>
<path d="M14968 6533 c6 -2 18 -2 25 0 6 3 1 5 -13 5 -14 0 -19 -2 -12 -5z"/>
<path d="M22006 6321 c-4 -5 -2 -12 3 -15 5 -4 12 -2 15 3 4 5 2 12 -3 15 -5
4 -12 2 -15 -3z"/>
<path d="M27290 6255 c-14 -8 -20 -14 -14 -15 5 0 19 7 30 15 24 18 16 19 -16
0z"/>
<path d="M27220 6225 c-14 -8 -20 -14 -14 -15 5 0 19 7 30 15 24 18 16 19 -16
0z"/>
<path d="M27108 6173 c7 -3 16 -2 19 1 4 3 -2 6 -13 5 -11 0 -14 -3 -6 -6z"/>
<path d="M30178 6163 c7 -3 16 -2 19 1 4 3 -2 6 -13 5 -11 0 -14 -3 -6 -6z"/>
<path d="M27015 6136 c-27 -14 -46 -25 -40 -25 16 -1 95 33 95 42 0 9 2 10
-55 -17z"/>
<path d="M27998 6133 c7 -3 16 -2 19 1 4 3 -2 6 -13 5 -11 0 -14 -3 -6 -6z"/>
<path d="M17625 6100 c-17 -7 -15 -9 13 -9 17 -1 32 4 32 9 0 12 -17 12 -45 0z"/>
<path d="M26907 6090 c-14 -11 -29 -20 -34 -20 -15 0 -63 -24 -63 -32 0 -8 67
19 95 38 11 8 27 14 37 14 10 0 18 5 18 10 0 16 -25 11 -53 -10z"/>
<path d="M17908 6053 c7 -3 16 -2 19 1 4 3 -2 6 -13 5 -11 0 -14 -3 -6 -6z"/>
<path d="M17968 6053 c12 -3 22 -8 22 -13 0 -14 83 -17 130 -4 l45 12 -35 2
c-76 5 -184 7 -162 3z"/>
<path d="M26750 6020 c0 -5 -6 -10 -14 -10 -8 0 -17 -6 -19 -12 -4 -9 -6 -9
-6 -1 -1 8 -8 8 -28 -1 -95 -45 -112 -54 -106 -60 3 -3 -5 -6 -20 -6 -14 0
-28 -4 -31 -9 -3 -5 -18 -12 -33 -16 -16 -3 -66 -24 -113 -47 -47 -22 -98 -46
-115 -52 -16 -7 -51 -23 -76 -35 -25 -11 -51 -21 -57 -21 -5 0 -48 -17 -94
-39 -124 -57 -267 -121 -273 -121 -2 0 -32 -13 -67 -29 -71 -33 -376 -167
-411 -180 -12 -5 -61 -27 -109 -50 -48 -23 -89 -41 -93 -41 -3 0 -38 -15 -78
-34 -76 -35 -113 -52 -187 -84 -25 -11 -70 -31 -100 -44 -30 -14 -118 -53
-195 -87 -77 -34 -153 -68 -170 -76 -16 -7 -50 -22 -75 -33 -25 -11 -80 -36
-123 -56 -42 -20 -79 -36 -82 -36 -2 0 -59 -25 -127 -56 -68 -30 -141 -64
-163 -73 -22 -10 -179 -80 -350 -156 -170 -75 -335 -148 -365 -162 -30 -14
-125 -56 -210 -93 -182 -80 -280 -123 -335 -150 -22 -10 -74 -33 -115 -51 -41
-17 -145 -63 -230 -101 -85 -39 -171 -76 -190 -83 -19 -7 -82 -35 -140 -62
-58 -27 -125 -58 -150 -68 -25 -10 -81 -35 -125 -55 -44 -21 -96 -44 -115 -52
-19 -9 -75 -33 -125 -55 -49 -22 -109 -48 -132 -58 -24 -10 -43 -22 -43 -27 0
-5 -5 -6 -11 -2 -17 10 -28 -17 -17 -42 16 -35 23 -33 286 87 34 16 64 29 66
29 3 0 57 25 121 55 63 30 118 55 122 55 3 0 29 11 57 24 166 79 269 126 277
126 5 0 24 9 44 20 20 11 61 31 93 44 31 13 91 40 132 59 41 19 127 58 190 87
118 53 130 58 283 129 49 23 91 41 93 41 2 0 47 20 100 45 52 25 97 45 100 45
3 0 48 20 101 45 52 25 97 45 100 45 2 0 37 15 76 34 40 19 95 44 122 56 28
12 88 40 135 62 47 22 105 49 130 60 25 11 68 30 95 43 28 13 73 33 100 45 28
13 83 38 123 56 41 19 75 34 78 34 2 0 39 16 82 36 42 20 97 45 122 56 25 11
59 25 75 33 27 13 87 40 245 112 121 55 161 73 164 73 3 0 58 25 123 56 210
99 220 104 226 104 4 0 35 14 69 31 35 17 99 46 143 64 44 18 107 47 140 63
96 47 171 82 178 82 3 0 58 25 122 55 63 30 117 55 119 55 8 0 181 83 186 89
3 3 14 8 25 9 11 2 25 7 30 12 6 4 78 38 160 75 215 96 300 137 303 147 2 4
13 8 24 8 25 0 88 29 88 41 0 5 -7 9 -15 9 -8 0 -15 -4 -15 -10z"/>
<path d="M27756 6018 c3 -5 10 -6 15 -3 13 9 11 12 -6 12 -8 0 -12 -4 -9 -9z"/>
<path d="M18230 6010 c0 -5 18 -10 39 -10 22 0 43 -4 46 -10 3 -5 34 -9 68 -9
34 1 53 4 42 6 -11 3 -26 10 -33 16 -17 14 -162 20 -162 7z"/>
<path d="M27720 6000 c-8 -5 -10 -10 -5 -10 6 0 17 5 25 10 8 5 11 10 5 10 -5
0 -17 -5 -25 -10z"/>
<path d="M18552 5983 c-6 -2 -10 -8 -7 -13 6 -10 45 -1 45 11 0 10 -17 11 -38
2z"/>
<path d="M18637 5968 c-4 -14 -2 -16 12 -8 10 5 27 7 38 4 12 -3 23 -1 27 4 3
6 -11 12 -33 14 -32 3 -41 0 -44 -14z"/>
<path d="M21330 5950 c-8 -5 -12 -12 -9 -15 4 -3 12 1 19 10 14 17 11 19 -10
5z"/>
<path d="M18710 5939 c0 -5 5 -7 10 -4 6 3 10 8 10 11 0 2 -4 4 -10 4 -5 0
-10 -5 -10 -11z"/>
<path d="M27480 5904 c0 -8 5 -12 10 -9 6 4 8 11 5 16 -9 14 -15 11 -15 -7z"/>
<path d="M27340 5850 c-9 -6 -10 -10 -3 -10 6 0 15 5 18 10 8 12 4 12 -15 0z"/>
<path d="M27285 5820 c3 -5 8 -10 11 -10 2 0 4 5 4 10 0 6 -5 10 -11 10 -5 0
-7 -4 -4 -10z"/>
<path d="M27120 5761 c0 -10 19 -25 25 -20 1 2 -3 10 -11 17 -8 7 -14 8 -14 3z"/>
<path d="M27075 5740 c-13 -6 -15 -9 -5 -9 8 0 22 4 30 9 18 12 2 12 -25 0z"/>
<path d="M27025 5720 c-3 -6 1 -7 9 -4 18 7 21 14 7 14 -6 0 -13 -4 -16 -10z"/>
<path d="M26970 5685 c0 -8 29 -12 39 -5 9 5 4 8 -13 8 -14 0 -26 -2 -26 -3z"/>
<path d="M26875 5660 c-3 -5 -1 -10 4 -10 6 0 11 5 11 10 0 6 -2 10 -4 10 -3
0 -8 -4 -11 -10z"/>
<path d="M26905 5650 c-3 -6 1 -7 9 -4 18 7 21 14 7 14 -6 0 -13 -4 -16 -10z"/>
<path d="M26843 5643 c-7 -3 -13 -9 -13 -14 0 -6 4 -8 9 -5 5 4 11 1 13 -4 2
-7 9 -6 18 2 8 7 13 12 11 11 -2 -2 -9 1 -15 6 -6 4 -17 6 -23 4z"/>
<path d="M26764 5611 c-5 -5 -45 -23 -89 -41 -80 -31 -109 -48 -67 -37 12 3
22 1 22 -5 0 -5 -16 -8 -34 -7 -19 2 -38 0 -42 -4 -4 -4 -1 -7 6 -7 11 0 11
-3 2 -12 -10 -10 -14 -10 -21 0 -6 10 -20 8 -66 -12 -31 -14 -64 -26 -72 -26
-12 0 -13 -3 -5 -13 9 -10 4 -13 -21 -13 -18 -1 -57 -12 -87 -27 -31 -14 -80
-35 -110 -47 -30 -11 -64 -25 -75 -30 -54 -25 -226 -100 -229 -100 -3 0 -33
-13 -68 -28 -35 -16 -83 -37 -108 -47 -25 -10 -70 -29 -100 -43 -30 -13 -77
-33 -105 -44 -27 -11 -63 -26 -80 -33 -263 -116 -361 -158 -396 -170 -24 -9
-62 -24 -86 -35 -98 -45 -134 -61 -263 -115 -74 -31 -153 -65 -175 -75 -80
-37 -231 -103 -300 -130 -38 -16 -83 -35 -100 -44 -16 -9 -38 -16 -47 -16 -10
0 -18 -4 -18 -10 0 -5 -5 -10 -11 -10 -5 0 -34 -11 -62 -24 -29 -13 -63 -27
-77 -31 -13 -4 -58 -23 -99 -42 -40 -19 -113 -50 -160 -70 -47 -19 -104 -44
-126 -54 -22 -10 -67 -29 -100 -42 -100 -41 -453 -194 -632 -273 -17 -8 -34
-14 -37 -14 -3 0 -41 -16 -83 -36 -43 -20 -100 -45 -128 -56 -27 -11 -63 -26
-80 -33 -16 -7 -68 -30 -115 -50 -47 -20 -99 -43 -117 -51 -17 -8 -34 -14 -37
-14 -3 0 -41 -16 -83 -36 -43 -20 -100 -45 -128 -55 -27 -11 -63 -26 -80 -34
-16 -8 -64 -29 -105 -46 -41 -17 -94 -40 -117 -50 -23 -11 -44 -19 -47 -19 -3
0 -43 -17 -88 -39 -46 -21 -100 -44 -120 -52 -21 -7 -38 -17 -38 -22 0 -4 -4
-6 -8 -3 -16 10 -72 -26 -73 -48 -2 -34 2 -50 16 -65 11 -11 24 -8 82 19 37
19 82 39 98 46 62 27 123 53 198 88 44 20 81 36 83 36 3 0 37 15 77 33 40 19
97 44 127 57 30 12 93 41 140 62 47 22 105 48 130 58 25 10 80 34 123 54 42
20 79 36 81 36 3 0 35 14 73 31 109 49 140 63 293 129 80 35 173 76 208 92 34
15 67 28 72 28 6 0 10 5 10 10 0 6 6 10 14 10 8 0 64 22 125 50 61 27 113 50
115 50 2 0 39 16 83 36 110 50 185 84 208 94 110 47 189 82 235 102 30 14 62
27 70 30 8 3 83 36 165 73 83 37 164 73 180 80 17 7 76 34 133 59 56 25 104
46 107 46 2 0 37 15 77 34 40 19 147 67 238 106 91 40 185 81 210 92 25 11 61
27 80 35 19 8 64 29 100 45 36 17 137 62 225 100 88 39 198 88 243 109 46 21
86 39 88 39 4 0 218 94 339 150 60 27 123 54 160 69 83 34 81 33 60 42 -18 8
-17 9 4 5 13 -3 43 3 66 14 22 10 53 22 67 25 15 4 32 13 39 21 6 8 17 14 24
14 7 0 36 10 64 22 37 15 48 24 39 30 -9 6 -3 8 17 6 25 -3 29 0 27 16 -3 16
1 18 28 13 18 -4 29 -3 25 2 -3 5 -1 12 4 15 5 4 12 2 16 -4 4 -6 11 -7 17 -4
6 4 5 9 -3 15 -20 12 -3 22 18 11 12 -7 25 -7 34 -1 12 7 12 9 -1 10 -8 0 -24
2 -36 4 -11 3 -25 0 -30 -4z m-291 -158 c-7 -2 -19 -2 -25 0 -7 3 -2 5 12 5
14 0 19 -2 13 -5z"/>
<path d="M27048 4533 c7 -3 16 -2 19 1 4 3 -2 6 -13 5 -11 0 -14 -3 -6 -6z"/>
<path d="M26435 4290 c-19 -8 -19 -9 3 -9 12 -1 22 4 22 9 0 6 -1 10 -2 9 -2
0 -12 -4 -23 -9z"/>
<path d="M25780 3959 c0 -5 5 -7 10 -4 6 3 10 8 10 11 0 2 -4 4 -10 4 -5 0
-10 -5 -10 -11z"/>
<path d="M25488 3733 c7 -3 16 -2 19 1 4 3 -2 6 -13 5 -11 0 -14 -3 -6 -6z"/>
<path d="M7358 3433 c7 -3 16 -2 19 1 4 3 -2 6 -13 5 -11 0 -14 -3 -6 -6z"/>
<path d="M7638 3393 c7 -3 16 -2 19 1 4 3 -2 6 -13 5 -11 0 -14 -3 -6 -6z"/>
<path d="M8158 3333 c6 -2 18 -2 25 0 6 3 1 5 -13 5 -14 0 -19 -2 -12 -5z"/>
<path d="M9818 3183 c7 -3 16 -2 19 1 4 3 -2 6 -13 5 -11 0 -14 -3 -6 -6z"/>
<path d="M9738 3173 c7 -3 16 -2 19 1 4 3 -2 6 -13 5 -11 0 -14 -3 -6 -6z"/>
<path d="M23995 3030 c3 -5 8 -10 11 -10 2 0 4 5 4 10 0 6 -5 10 -11 10 -5 0
-7 -4 -4 -10z"/>
<path d="M12198 2933 c7 -3 16 -2 19 1 4 3 -2 6 -13 5 -11 0 -14 -3 -6 -6z"/>
<path d="M23888 2933 c6 -2 18 -2 25 0 6 3 1 5 -13 5 -14 0 -19 -2 -12 -5z"/>
<path d="M23858 2913 c7 -3 16 -2 19 1 4 3 -2 6 -13 5 -11 0 -14 -3 -6 -6z"/>
<path d="M12530 2899 c0 -5 5 -7 10 -4 6 3 10 8 10 11 0 2 -4 4 -10 4 -5 0
-10 -5 -10 -11z"/>
<path d="M13218 2863 c7 -3 16 -2 19 1 4 3 -2 6 -13 5 -11 0 -14 -3 -6 -6z"/>
<path d="M23745 2860 c-19 -8 -19 -9 3 -9 12 -1 22 4 22 9 0 6 -1 10 -2 9 -2
0 -12 -4 -23 -9z"/>
<path d="M13103 2843 c9 -2 23 -2 30 0 6 3 -1 5 -18 5 -16 0 -22 -2 -12 -5z"/>
<path d="M23705 2840 c-3 -5 -1 -10 4 -10 6 0 11 5 11 10 0 6 -2 10 -4 10 -3
0 -8 -4 -11 -10z"/>
<path d="M13538 2833 c6 -2 18 -2 25 0 6 3 1 5 -13 5 -14 0 -19 -2 -12 -5z"/>
<path d="M13408 2813 c7 -3 16 -2 19 1 4 3 -2 6 -13 5 -11 0 -14 -3 -6 -6z"/>
<path d="M13836 2792 c-5 -8 62 -7 71 2 4 3 -10 6 -30 6 -20 0 -38 -3 -41 -8z"/>
<path d="M23580 2780 c-8 -5 -10 -10 -5 -10 6 0 17 5 25 10 8 5 11 10 5 10 -5
0 -17 -5 -25 -10z"/>
<path d="M14093 2773 c9 -2 25 -2 35 0 9 3 1 5 -18 5 -19 0 -27 -2 -17 -5z"/>
<path d="M14178 2753 c12 -2 30 -2 40 0 9 3 -1 5 -23 4 -22 0 -30 -2 -17 -4z"/>
<path d="M23538 2753 c7 -3 16 -2 19 1 4 3 -2 6 -13 5 -11 0 -14 -3 -6 -6z"/>
<path d="M14573 2733 c9 -2 23 -2 30 0 6 3 -1 5 -18 5 -16 0 -22 -2 -12 -5z"/>
<path d="M23393 2733 c9 -2 23 -2 30 0 6 3 -1 5 -18 5 -16 0 -22 -2 -12 -5z"/>
<path d="M14438 2723 c7 -3 16 -2 19 1 4 3 -2 6 -13 5 -11 0 -14 -3 -6 -6z"/>
<path d="M14615 2705 c25 -9 107 -12 94 -4 -8 5 -34 8 -59 8 -25 0 -40 -2 -35
-4z"/>
<path d="M23420 2700 c-9 -6 -10 -10 -3 -10 6 0 15 5 18 10 8 12 4 12 -15 0z"/>
<path d="M14868 2683 c7 -3 16 -2 19 1 4 3 -2 6 -13 5 -11 0 -14 -3 -6 -6z"/>
<path d="M14918 2673 c7 -3 16 -2 19 1 4 3 -2 6 -13 5 -11 0 -14 -3 -6 -6z"/>
<path d="M15063 2673 c9 -2 23 -2 30 0 6 3 -1 5 -18 5 -16 0 -22 -2 -12 -5z"/>
<path d="M15308 2643 c7 -3 16 -2 19 1 4 3 -2 6 -13 5 -11 0 -14 -3 -6 -6z"/>
<path d="M23300 2639 c0 -5 5 -7 10 -4 6 3 10 8 10 11 0 2 -4 4 -10 4 -5 0
-10 -5 -10 -11z"/>
<path d="M15485 2630 c-4 -6 3 -10 14 -10 25 0 27 6 6 13 -8 4 -17 2 -20 -3z"/>
<path d="M15578 2613 c7 -3 16 -2 19 1 4 3 -2 6 -13 5 -11 0 -14 -3 -6 -6z"/>
<path d="M23080 2610 c-8 -5 -10 -10 -5 -10 6 0 17 5 25 10 8 5 11 10 5 10 -5
0 -17 -5 -25 -10z"/>
<path d="M15723 2603 c9 -2 25 -2 35 0 9 3 1 5 -18 5 -19 0 -27 -2 -17 -5z"/>
<path d="M15968 2603 c7 -3 16 -2 19 1 4 3 -2 6 -13 5 -11 0 -14 -3 -6 -6z"/>
<path d="M15817 2593 c18 -2 50 -2 70 0 21 2 7 4 -32 4 -38 0 -55 -2 -38 -4z"/>
<path d="M16168 2593 c6 -2 18 -2 25 0 6 3 1 5 -13 5 -14 0 -19 -2 -12 -5z"/>
<path d="M16448 2573 c7 -3 16 -2 19 1 4 3 -2 6 -13 5 -11 0 -14 -3 -6 -6z"/>
<path d="M23130 2560 c-8 -5 -12 -12 -9 -15 4 -3 12 1 19 10 14 17 11 19 -10
5z"/>
<path d="M16368 2543 c6 -2 18 -2 25 0 6 3 1 5 -13 5 -14 0 -19 -2 -12 -5z"/>
<path d="M16578 2523 c6 -2 18 -2 25 0 6 3 1 5 -13 5 -14 0 -19 -2 -12 -5z"/>
<path d="M16716 2511 c-4 -5 3 -7 14 -4 23 6 26 13 6 13 -8 0 -17 -4 -20 -9z"/>
<path d="M16925 2500 c-3 -5 1 -10 9 -10 9 0 16 5 16 10 0 6 -4 10 -9 10 -6 0
-13 -4 -16 -10z"/>
<path d="M17198 2493 c7 -3 16 -2 19 1 4 3 -2 6 -13 5 -11 0 -14 -3 -6 -6z"/>
<path d="M22930 2470 c0 -5 5 -10 11 -10 5 0 7 5 4 10 -3 6 -8 10 -11 10 -2 0
-4 -4 -4 -10z"/>
<path d="M17318 2463 c7 -3 16 -2 19 1 4 3 -2 6 -13 5 -11 0 -14 -3 -6 -6z"/>
<path d="M17590 2460 c-10 -6 -2 -7 25 -3 49 7 58 13 19 13 -16 0 -36 -5 -44
-10z"/>
<path d="M22795 2410 c3 -5 13 -10 21 -10 8 0 14 5 14 10 0 6 -9 10 -21 10
-11 0 -17 -4 -14 -10z"/>
<path d="M17943 2403 c9 -2 23 -2 30 0 6 3 -1 5 -18 5 -16 0 -22 -2 -12 -5z"/>
<path d="M18258 2403 c12 -2 32 -2 45 0 12 2 2 4 -23 4 -25 0 -35 -2 -22 -4z"/>
<path d="M18368 2363 c7 -3 16 -2 19 1 4 3 -2 6 -13 5 -11 0 -14 -3 -6 -6z"/>
<path d="M18438 2363 c7 -3 16 -2 19 1 4 3 -2 6 -13 5 -11 0 -14 -3 -6 -6z"/>
<path d="M18568 2353 c7 -3 16 -2 19 1 4 3 -2 6 -13 5 -11 0 -14 -3 -6 -6z"/>
<path d="M22630 2319 c0 -5 5 -7 10 -4 6 3 10 8 10 11 0 2 -4 4 -10 4 -5 0
-10 -5 -10 -11z"/>
<path d="M19093 2303 c9 -2 25 -2 35 0 9 3 1 5 -18 5 -19 0 -27 -2 -17 -5z"/>
<path d="M19158 2303 c7 -3 16 -2 19 1 4 3 -2 6 -13 5 -11 0 -14 -3 -6 -6z"/>
<path d="M19323 2283 c9 -2 23 -2 30 0 6 3 -1 5 -18 5 -16 0 -22 -2 -12 -5z"/>
<path d="M19516 2271 c-4 -5 3 -7 14 -4 23 6 26 13 6 13 -8 0 -17 -4 -20 -9z"/>
<path d="M19943 2233 c9 -2 25 -2 35 0 9 3 1 5 -18 5 -19 0 -27 -2 -17 -5z"/>
<path d="M20063 2223 c15 -2 39 -2 55 0 15 2 2 4 -28 4 -30 0 -43 -2 -27 -4z"/>
<path d="M20498 2223 c12 -2 30 -2 40 0 9 3 -1 5 -23 4 -22 0 -30 -2 -17 -4z"/>
<path d="M20470 2191 c0 -5 9 -7 20 -4 11 3 20 7 20 9 0 2 -9 4 -20 4 -11 0
-20 -4 -20 -9z"/>
<path d="M20658 2193 c12 -2 32 -2 45 0 12 2 2 4 -23 4 -25 0 -35 -2 -22 -4z"/>
<path d="M21288 2173 c7 -3 16 -2 19 1 4 3 -2 6 -13 5 -11 0 -14 -3 -6 -6z"/>
<path d="M21128 2163 c7 -3 16 -2 19 1 4 3 -2 6 -13 5 -11 0 -14 -3 -6 -6z"/>
<path d="M21355 2160 c3 -5 14 -10 23 -10 15 0 15 2 2 10 -20 13 -33 13 -25 0z"/>
<path d="M21288 2153 c7 -3 16 -2 19 1 4 3 -2 6 -13 5 -11 0 -14 -3 -6 -6z"/>
</g>
</svg>
